<svg width="552" height="376" viewBox="0 0 552 376" fill="none" xmlns="http://www.w3.org/2000/svg">
<rect width="550.669" height="376" transform="translate(0.921844)" fill="#141A16"/>
<circle cx="276.256" cy="155.454" r="69.6498" fill="#12D96A"/>
<path fill-rule="evenodd" clip-rule="evenodd" d="M265.335 171.534L246.867 153.066L243.172 156.758L262.873 176.458C263.526 177.111 264.411 177.478 265.335 177.478C266.258 177.478 267.144 177.111 267.797 176.458L308.427 135.828L304.736 132.137L265.335 171.531V171.534Z" fill="white"/>
<path d="M190.012 272.973C188.298 272.973 186.837 272.671 185.629 272.067C184.437 271.446 183.523 270.491 182.886 269.202C182.25 267.912 181.931 266.271 181.931 264.28C181.931 261.342 182.642 259.162 184.062 257.742C185.498 256.306 187.49 255.587 190.036 255.587C191.44 255.587 192.697 255.824 193.807 256.297C194.934 256.771 195.815 257.481 196.452 258.428C197.105 259.358 197.431 260.55 197.431 262.003H194.64C194.64 261.105 194.452 260.354 194.077 259.75C193.701 259.146 193.162 258.689 192.461 258.379C191.775 258.069 190.975 257.914 190.061 257.914C188.918 257.914 187.947 258.142 187.147 258.599C186.363 259.04 185.768 259.709 185.36 260.607C184.968 261.505 184.772 262.648 184.772 264.035V264.574C184.772 265.961 184.968 267.104 185.36 268.002C185.768 268.9 186.363 269.569 187.147 270.01C187.931 270.434 188.902 270.646 190.061 270.646C191.008 270.646 191.832 270.499 192.534 270.206C193.236 269.895 193.775 269.438 194.15 268.834C194.542 268.23 194.738 267.479 194.738 266.582H197.431C197.431 268.034 197.105 269.234 196.452 270.181C195.815 271.128 194.934 271.83 193.807 272.287C192.697 272.744 191.432 272.973 190.012 272.973ZM200.14 272.679V254.975H202.686V272.679H200.14ZM209.231 272.973C208.823 272.973 208.382 272.924 207.909 272.826C207.435 272.728 206.986 272.548 206.562 272.287C206.154 272.026 205.819 271.667 205.558 271.21C205.297 270.736 205.166 270.124 205.166 269.373C205.166 268.492 205.37 267.765 205.778 267.194C206.186 266.622 206.758 266.174 207.492 265.847C208.227 265.521 209.1 265.292 210.112 265.161C211.141 265.031 212.259 264.966 213.467 264.966V263.692C213.467 263.268 213.394 262.892 213.247 262.566C213.116 262.239 212.863 261.986 212.488 261.807C212.128 261.627 211.606 261.537 210.921 261.537C210.235 261.537 209.696 261.627 209.304 261.807C208.929 261.97 208.66 262.182 208.496 262.443C208.349 262.688 208.276 262.958 208.276 263.252V263.619H205.827C205.811 263.537 205.803 263.456 205.803 263.374C205.803 263.292 205.803 263.194 205.803 263.08C205.803 262.313 206.015 261.668 206.44 261.146C206.88 260.607 207.492 260.199 208.276 259.921C209.06 259.644 209.966 259.505 210.994 259.505C212.104 259.505 213.026 259.668 213.761 259.995C214.512 260.305 215.075 260.754 215.45 261.342C215.826 261.929 216.014 262.639 216.014 263.472V270.01C216.014 270.32 216.087 270.54 216.234 270.671C216.397 270.801 216.585 270.867 216.797 270.867H217.679V272.581C217.483 272.662 217.238 272.744 216.944 272.826C216.65 272.907 216.307 272.948 215.916 272.948C215.475 272.948 215.099 272.866 214.789 272.703C214.495 272.556 214.251 272.344 214.055 272.067C213.875 271.773 213.753 271.446 213.687 271.087H213.541C213.247 271.463 212.888 271.797 212.463 272.091C212.055 272.369 211.582 272.581 211.043 272.728C210.504 272.891 209.9 272.973 209.231 272.973ZM209.941 270.867C210.447 270.867 210.912 270.793 211.337 270.646C211.778 270.483 212.153 270.263 212.463 269.985C212.773 269.691 213.018 269.349 213.198 268.957C213.377 268.549 213.467 268.108 213.467 267.635V266.778C212.341 266.778 211.353 266.843 210.504 266.973C209.655 267.104 208.994 267.349 208.521 267.708C208.047 268.051 207.811 268.532 207.811 269.153C207.811 269.528 207.892 269.846 208.056 270.108C208.219 270.353 208.464 270.54 208.79 270.671C209.117 270.801 209.5 270.867 209.941 270.867ZM219.437 257.571V254.975H221.984V257.571H219.437ZM219.437 272.679V259.799H221.984V272.679H219.437ZM225.272 272.679V259.799H227.377L227.598 261.635H227.769C228.063 261.162 228.398 260.77 228.773 260.46C229.165 260.15 229.597 259.913 230.071 259.75C230.561 259.587 231.083 259.505 231.638 259.505C232.438 259.505 233.132 259.668 233.719 259.995C234.323 260.321 234.78 260.868 235.091 261.635H235.262C235.556 261.178 235.899 260.795 236.29 260.485C236.682 260.158 237.123 259.913 237.613 259.75C238.119 259.587 238.657 259.505 239.229 259.505C239.996 259.505 240.673 259.644 241.261 259.921C241.849 260.183 242.314 260.631 242.657 261.268C243 261.888 243.171 262.721 243.171 263.766V272.679H240.624V264.231C240.624 263.741 240.567 263.341 240.453 263.031C240.339 262.705 240.184 262.452 239.988 262.272C239.792 262.076 239.555 261.937 239.278 261.856C239 261.774 238.698 261.733 238.372 261.733C237.833 261.733 237.351 261.88 236.927 262.174C236.503 262.452 236.16 262.843 235.899 263.349C235.637 263.855 235.507 264.451 235.507 265.137V272.679H232.96V264.231C232.96 263.741 232.903 263.341 232.789 263.031C232.675 262.705 232.519 262.452 232.324 262.272C232.128 262.076 231.891 261.937 231.613 261.856C231.336 261.774 231.042 261.733 230.732 261.733C230.193 261.733 229.704 261.88 229.263 262.174C228.822 262.452 228.471 262.843 228.21 263.349C227.949 263.855 227.818 264.451 227.818 265.137V272.679H225.272ZM257.922 272.973C257.008 272.973 256.127 272.875 255.278 272.679C254.429 272.499 253.678 272.205 253.025 271.797C252.372 271.373 251.858 270.842 251.482 270.206C251.107 269.553 250.919 268.777 250.919 267.879C250.919 267.781 250.919 267.692 250.919 267.61C250.936 267.512 250.944 267.43 250.944 267.365H253.686C253.686 267.414 253.678 267.488 253.662 267.586C253.662 267.684 253.662 267.765 253.662 267.83C253.662 268.434 253.841 268.949 254.2 269.373C254.559 269.797 255.057 270.116 255.694 270.328C256.347 270.54 257.09 270.646 257.922 270.646C258.379 270.646 258.82 270.622 259.245 270.573C259.669 270.508 260.053 270.418 260.395 270.304C260.754 270.173 261.065 270.018 261.326 269.838C261.587 269.642 261.791 269.414 261.938 269.153C262.085 268.892 262.158 268.59 262.158 268.247C262.158 267.724 262.003 267.292 261.693 266.949C261.399 266.606 260.991 266.32 260.469 266.092C259.963 265.863 259.383 265.659 258.73 265.48C258.094 265.3 257.433 265.121 256.747 264.941C256.061 264.761 255.392 264.549 254.739 264.304C254.102 264.06 253.523 263.766 253.001 263.423C252.494 263.064 252.086 262.623 251.776 262.101C251.482 261.562 251.335 260.909 251.335 260.142C251.335 259.407 251.491 258.754 251.801 258.183C252.111 257.612 252.56 257.138 253.147 256.763C253.735 256.371 254.437 256.077 255.253 255.881C256.069 255.685 256.992 255.587 258.02 255.587C258.902 255.587 259.734 255.685 260.518 255.881C261.301 256.061 261.987 256.346 262.575 256.738C263.162 257.13 263.619 257.628 263.946 258.232C264.289 258.836 264.46 259.554 264.46 260.387V260.68H261.742V260.362C261.742 259.84 261.587 259.399 261.277 259.04C260.967 258.681 260.534 258.403 259.979 258.207C259.424 258.011 258.779 257.914 258.045 257.914C257.179 257.914 256.453 258.003 255.865 258.183C255.278 258.346 254.829 258.583 254.519 258.893C254.225 259.187 254.078 259.546 254.078 259.97C254.078 260.444 254.233 260.836 254.543 261.146C254.853 261.44 255.261 261.693 255.767 261.905C256.29 262.117 256.869 262.313 257.506 262.492C258.159 262.656 258.82 262.835 259.489 263.031C260.175 263.211 260.836 263.423 261.473 263.668C262.126 263.913 262.705 264.215 263.211 264.574C263.734 264.933 264.15 265.382 264.46 265.921C264.77 266.443 264.925 267.088 264.925 267.855C264.925 269.063 264.623 270.051 264.019 270.818C263.415 271.569 262.583 272.116 261.522 272.458C260.477 272.801 259.277 272.973 257.922 272.973ZM271.804 272.973C270.563 272.973 269.559 272.646 268.792 271.993C268.025 271.324 267.641 270.189 267.641 268.59V259.799H270.188V268.198C270.188 268.687 270.245 269.096 270.359 269.422C270.49 269.749 270.67 270.01 270.898 270.206C271.127 270.401 271.396 270.54 271.706 270.622C272.016 270.703 272.359 270.744 272.735 270.744C273.322 270.744 273.853 270.606 274.326 270.328C274.816 270.034 275.208 269.634 275.501 269.128C275.795 268.606 275.942 268.01 275.942 267.341V259.799H278.489V272.679H276.407L276.187 270.842H276.016C275.706 271.316 275.338 271.707 274.914 272.018C274.489 272.328 274.016 272.564 273.494 272.728C272.988 272.891 272.424 272.973 271.804 272.973ZM288.241 272.973C287.392 272.973 286.625 272.801 285.939 272.458C285.253 272.116 284.69 271.601 284.25 270.916H284.078L283.858 272.679H281.776V254.975H284.323V261.366H284.47C284.747 260.942 285.074 260.591 285.449 260.313C285.841 260.036 286.282 259.832 286.772 259.701C287.261 259.57 287.792 259.505 288.363 259.505C289.343 259.505 290.208 259.742 290.959 260.215C291.71 260.689 292.289 261.415 292.697 262.394C293.122 263.374 293.334 264.639 293.334 266.19C293.334 267.773 293.13 269.063 292.722 270.059C292.314 271.054 291.726 271.789 290.959 272.262C290.208 272.736 289.302 272.973 288.241 272.973ZM287.531 270.769C288.265 270.769 288.861 270.622 289.318 270.328C289.792 270.034 290.143 269.577 290.371 268.957C290.6 268.32 290.714 267.496 290.714 266.484V266.043C290.714 265.031 290.6 264.206 290.371 263.57C290.159 262.933 289.816 262.468 289.343 262.174C288.869 261.864 288.249 261.709 287.482 261.709C287.008 261.709 286.576 261.79 286.184 261.954C285.792 262.117 285.458 262.378 285.18 262.737C284.903 263.08 284.69 263.529 284.543 264.084C284.396 264.639 284.323 265.308 284.323 266.092V266.435C284.323 267.365 284.429 268.157 284.641 268.81C284.87 269.447 285.221 269.936 285.694 270.279C286.168 270.606 286.78 270.769 287.531 270.769ZM295.956 272.679V259.799H298.062L298.283 261.635H298.454C298.748 261.162 299.083 260.77 299.458 260.46C299.85 260.15 300.282 259.913 300.756 259.75C301.246 259.587 301.768 259.505 302.323 259.505C303.123 259.505 303.817 259.668 304.404 259.995C305.008 260.321 305.465 260.868 305.775 261.635H305.947C306.241 261.178 306.584 260.795 306.975 260.485C307.367 260.158 307.808 259.913 308.298 259.75C308.804 259.587 309.342 259.505 309.914 259.505C310.681 259.505 311.358 259.644 311.946 259.921C312.534 260.183 312.999 260.631 313.342 261.268C313.685 261.888 313.856 262.721 313.856 263.766V272.679H311.309V264.231C311.309 263.741 311.252 263.341 311.138 263.031C311.024 262.705 310.869 262.452 310.673 262.272C310.477 262.076 310.24 261.937 309.963 261.856C309.685 261.774 309.383 261.733 309.057 261.733C308.518 261.733 308.036 261.88 307.612 262.174C307.188 262.452 306.845 262.843 306.584 263.349C306.322 263.855 306.192 264.451 306.192 265.137V272.679H303.645V264.231C303.645 263.741 303.588 263.341 303.474 263.031C303.359 262.705 303.204 262.452 303.009 262.272C302.813 262.076 302.576 261.937 302.298 261.856C302.021 261.774 301.727 261.733 301.417 261.733C300.878 261.733 300.388 261.88 299.948 262.174C299.507 262.452 299.156 262.843 298.895 263.349C298.634 263.855 298.503 264.451 298.503 265.137V272.679H295.956ZM317.023 257.571V254.975H319.57V257.571H317.023ZM317.023 272.679V259.799H319.57V272.679H317.023ZM326.066 272.973C325.331 272.973 324.751 272.834 324.327 272.556C323.919 272.262 323.625 271.895 323.446 271.454C323.282 270.997 323.201 270.516 323.201 270.01V261.905H321.585V259.799H323.25L323.715 256.199H325.747V259.799H328.073V261.905H325.747V269.716C325.747 270.091 325.829 270.377 325.992 270.573C326.155 270.769 326.425 270.867 326.8 270.867H328.073V272.581C327.91 272.646 327.706 272.703 327.461 272.752C327.233 272.817 326.996 272.866 326.751 272.899C326.506 272.948 326.278 272.973 326.066 272.973ZM333.526 272.973C332.792 272.973 332.212 272.834 331.788 272.556C331.38 272.262 331.086 271.895 330.906 271.454C330.743 270.997 330.661 270.516 330.661 270.01V261.905H329.045V259.799H330.71L331.176 256.199H333.208V259.799H335.534V261.905H333.208V269.716C333.208 270.091 333.29 270.377 333.453 270.573C333.616 270.769 333.885 270.867 334.261 270.867H335.534V272.581C335.371 272.646 335.167 272.703 334.922 272.752C334.693 272.817 334.457 272.866 334.212 272.899C333.967 272.948 333.738 272.973 333.526 272.973ZM343.117 272.973C341.795 272.973 340.685 272.736 339.787 272.262C338.906 271.773 338.236 271.03 337.779 270.034C337.322 269.038 337.094 267.773 337.094 266.239C337.094 264.688 337.322 263.423 337.779 262.443C338.236 261.448 338.914 260.713 339.812 260.24C340.709 259.75 341.828 259.505 343.166 259.505C344.39 259.505 345.411 259.742 346.227 260.215C347.059 260.672 347.688 261.374 348.112 262.321C348.537 263.268 348.749 264.459 348.749 265.896V266.875H339.714C339.746 267.79 339.885 268.557 340.13 269.177C340.375 269.781 340.742 270.23 341.232 270.524C341.738 270.801 342.374 270.94 343.142 270.94C343.615 270.94 344.04 270.883 344.415 270.769C344.79 270.638 345.109 270.459 345.37 270.23C345.631 269.985 345.835 269.7 345.982 269.373C346.129 269.03 346.202 268.647 346.202 268.222H348.7C348.7 268.989 348.569 269.667 348.308 270.255C348.047 270.842 347.663 271.34 347.157 271.748C346.668 272.14 346.08 272.442 345.394 272.654C344.709 272.866 343.95 272.973 343.117 272.973ZM339.763 265.015H346.08C346.08 264.378 346.007 263.847 345.86 263.423C345.729 262.982 345.533 262.623 345.272 262.346C345.011 262.068 344.701 261.872 344.341 261.758C343.982 261.627 343.574 261.562 343.117 261.562C342.432 261.562 341.844 261.684 341.354 261.929C340.881 262.174 340.513 262.558 340.252 263.08C339.991 263.586 339.828 264.231 339.763 265.015ZM355.769 272.973C354.725 272.973 353.819 272.736 353.052 272.262C352.284 271.789 351.688 271.054 351.264 270.059C350.856 269.063 350.652 267.773 350.652 266.19C350.652 264.639 350.864 263.374 351.289 262.394C351.713 261.415 352.301 260.689 353.052 260.215C353.802 259.742 354.668 259.505 355.647 259.505C356.218 259.505 356.749 259.57 357.239 259.701C357.728 259.832 358.161 260.036 358.536 260.313C358.928 260.591 359.255 260.942 359.516 261.366H359.687V254.975H362.234V272.679H360.153L359.908 270.916H359.736C359.312 271.601 358.749 272.116 358.047 272.458C357.361 272.801 356.602 272.973 355.769 272.973ZM356.48 270.769C357.231 270.769 357.835 270.606 358.292 270.279C358.765 269.936 359.116 269.447 359.344 268.81C359.573 268.157 359.687 267.365 359.687 266.435V266.092C359.687 265.308 359.614 264.639 359.467 264.084C359.32 263.529 359.108 263.08 358.83 262.737C358.553 262.378 358.218 262.117 357.826 261.954C357.435 261.79 356.994 261.709 356.504 261.709C355.753 261.709 355.141 261.864 354.668 262.174C354.194 262.468 353.843 262.933 353.615 263.57C353.402 264.206 353.296 265.031 353.296 266.043V266.484C353.296 267.496 353.411 268.32 353.639 268.957C353.868 269.577 354.211 270.034 354.668 270.328C355.141 270.622 355.745 270.769 356.48 270.769ZM366.521 268.149L365.836 255.881H368.823L368.138 268.149H366.521ZM365.958 272.679V269.838H368.701V272.679H365.958Z" fill="white"/>
<path d="M106.779 296.217V293.148L103.873 288.751H105.266L107.399 292.06H107.453L109.565 288.751H110.903L107.997 293.148V296.217H106.779ZM113.116 296.347C112.521 296.347 112.017 296.242 111.604 296.032C111.197 295.814 110.889 295.484 110.679 295.041C110.475 294.599 110.374 294.037 110.374 293.355C110.374 292.665 110.475 292.103 110.679 291.668C110.889 291.225 111.197 290.899 111.604 290.688C112.017 290.471 112.521 290.362 113.116 290.362C113.726 290.362 114.234 290.471 114.64 290.688C115.046 290.899 115.351 291.225 115.554 291.668C115.764 292.103 115.87 292.665 115.87 293.355C115.87 294.037 115.764 294.599 115.554 295.041C115.351 295.484 115.046 295.814 114.64 296.032C114.234 296.242 113.726 296.347 113.116 296.347ZM113.116 295.411C113.479 295.411 113.777 295.343 114.009 295.205C114.241 295.06 114.411 294.842 114.52 294.552C114.636 294.262 114.694 293.895 114.694 293.453V293.257C114.694 292.814 114.636 292.448 114.52 292.158C114.411 291.867 114.241 291.653 114.009 291.515C113.777 291.37 113.479 291.298 113.116 291.298C112.761 291.298 112.467 291.37 112.235 291.515C112.003 291.653 111.829 291.867 111.712 292.158C111.604 292.448 111.549 292.814 111.549 293.257V293.453C111.549 293.895 111.604 294.262 111.712 294.552C111.829 294.842 112.003 295.06 112.235 295.205C112.467 295.343 112.761 295.411 113.116 295.411ZM118.819 296.347C118.268 296.347 117.821 296.202 117.48 295.912C117.139 295.615 116.969 295.11 116.969 294.399V290.492H118.101V294.225C118.101 294.443 118.126 294.624 118.177 294.769C118.235 294.914 118.315 295.031 118.416 295.118C118.518 295.205 118.638 295.266 118.775 295.303C118.913 295.339 119.066 295.357 119.233 295.357C119.494 295.357 119.729 295.295 119.94 295.172C120.158 295.041 120.332 294.864 120.462 294.639C120.593 294.407 120.658 294.142 120.658 293.844V290.492H121.79V296.217H120.865L120.767 295.401H120.691C120.553 295.611 120.39 295.785 120.201 295.923C120.012 296.061 119.802 296.166 119.57 296.239C119.345 296.311 119.095 296.347 118.819 296.347ZM123.251 296.217V290.492H124.187L124.285 291.417H124.35C124.416 291.236 124.499 291.066 124.601 290.906C124.709 290.746 124.847 290.616 125.014 290.514C125.188 290.413 125.399 290.362 125.645 290.362C125.761 290.362 125.863 290.373 125.95 290.395C126.044 290.416 126.117 290.434 126.168 290.449V291.515H125.787C125.555 291.515 125.348 291.552 125.167 291.624C124.992 291.697 124.844 291.806 124.72 291.951C124.604 292.089 124.517 292.259 124.459 292.462C124.408 292.665 124.383 292.894 124.383 293.148V296.217H123.251ZM131.307 296.347C130.734 296.347 130.255 296.242 129.871 296.032C129.486 295.814 129.196 295.484 129 295.041C128.811 294.599 128.717 294.037 128.717 293.355C128.717 292.673 128.815 292.114 129.011 291.679C129.207 291.236 129.497 290.906 129.881 290.688C130.273 290.471 130.752 290.362 131.318 290.362C131.71 290.362 132.051 290.413 132.341 290.514C132.631 290.609 132.878 290.754 133.081 290.95C133.284 291.138 133.433 291.374 133.527 291.657C133.629 291.94 133.68 292.263 133.68 292.625H132.537C132.537 292.321 132.493 292.07 132.406 291.875C132.319 291.679 132.185 291.534 132.004 291.439C131.822 291.338 131.586 291.287 131.296 291.287C130.992 291.287 130.734 291.359 130.524 291.505C130.313 291.642 130.154 291.856 130.045 292.147C129.936 292.43 129.881 292.803 129.881 293.268V293.453C129.881 293.895 129.932 294.265 130.034 294.563C130.143 294.853 130.302 295.07 130.513 295.216C130.73 295.353 131.006 295.422 131.34 295.422C131.63 295.422 131.862 295.372 132.036 295.27C132.218 295.161 132.352 295.009 132.439 294.813C132.533 294.61 132.58 294.367 132.58 294.084H133.68C133.68 294.425 133.629 294.733 133.527 295.009C133.433 295.285 133.284 295.524 133.081 295.727C132.885 295.923 132.638 296.075 132.341 296.184C132.044 296.293 131.699 296.347 131.307 296.347ZM134.825 296.217V288.349H135.957V296.217H134.825ZM138.865 296.347C138.684 296.347 138.488 296.326 138.278 296.282C138.067 296.239 137.868 296.159 137.679 296.043C137.498 295.927 137.349 295.767 137.233 295.564C137.117 295.353 137.059 295.081 137.059 294.748C137.059 294.356 137.149 294.033 137.331 293.779C137.512 293.525 137.766 293.326 138.093 293.181C138.419 293.035 138.807 292.934 139.257 292.876C139.714 292.818 140.211 292.789 140.748 292.789V292.223C140.748 292.034 140.715 291.867 140.65 291.722C140.592 291.577 140.48 291.465 140.313 291.385C140.153 291.305 139.921 291.265 139.616 291.265C139.311 291.265 139.072 291.305 138.898 291.385C138.731 291.457 138.611 291.552 138.539 291.668C138.474 291.777 138.441 291.896 138.441 292.027V292.19H137.353C137.345 292.154 137.342 292.118 137.342 292.081C137.342 292.045 137.342 292.002 137.342 291.951C137.342 291.61 137.436 291.323 137.625 291.091C137.821 290.852 138.093 290.67 138.441 290.547C138.789 290.424 139.192 290.362 139.649 290.362C140.142 290.362 140.552 290.434 140.879 290.58C141.212 290.717 141.463 290.917 141.63 291.178C141.796 291.439 141.88 291.755 141.88 292.125V295.031C141.88 295.168 141.912 295.266 141.978 295.324C142.05 295.382 142.134 295.411 142.228 295.411H142.62V296.173C142.533 296.21 142.424 296.246 142.293 296.282C142.163 296.318 142.01 296.337 141.836 296.337C141.64 296.337 141.474 296.3 141.336 296.228C141.205 296.162 141.096 296.068 141.009 295.945C140.929 295.814 140.875 295.669 140.846 295.509H140.781C140.65 295.676 140.49 295.825 140.302 295.956C140.12 296.079 139.91 296.173 139.671 296.239C139.431 296.311 139.163 296.347 138.865 296.347ZM139.181 295.411C139.406 295.411 139.613 295.379 139.801 295.314C139.997 295.241 140.164 295.143 140.302 295.02C140.44 294.889 140.549 294.737 140.628 294.563C140.708 294.381 140.748 294.185 140.748 293.975V293.594C140.247 293.594 139.808 293.623 139.431 293.681C139.054 293.739 138.76 293.848 138.55 294.008C138.339 294.16 138.234 294.374 138.234 294.65C138.234 294.817 138.27 294.958 138.343 295.074C138.415 295.183 138.524 295.266 138.669 295.324C138.815 295.382 138.985 295.411 139.181 295.411ZM143.401 289.502V288.349H144.533V289.502H143.401ZM143.401 296.217V290.492H144.533V296.217H143.401ZM145.994 296.217V290.492H146.93L147.028 291.309H147.105C147.235 291.098 147.384 290.924 147.551 290.786C147.725 290.648 147.917 290.543 148.127 290.471C148.345 290.398 148.577 290.362 148.824 290.362C149.179 290.362 149.488 290.434 149.749 290.58C150.017 290.725 150.221 290.968 150.358 291.309H150.435C150.565 291.106 150.718 290.935 150.892 290.797C151.066 290.652 151.262 290.543 151.479 290.471C151.704 290.398 151.944 290.362 152.198 290.362C152.539 290.362 152.84 290.424 153.101 290.547C153.362 290.663 153.569 290.862 153.721 291.145C153.874 291.421 153.95 291.791 153.95 292.255V296.217H152.818V292.462C152.818 292.245 152.793 292.067 152.742 291.929C152.691 291.784 152.622 291.671 152.535 291.592C152.448 291.505 152.343 291.443 152.219 291.407C152.096 291.37 151.962 291.352 151.817 291.352C151.577 291.352 151.363 291.417 151.175 291.548C150.986 291.671 150.834 291.846 150.718 292.07C150.602 292.295 150.543 292.56 150.543 292.865V296.217H149.412V292.462C149.412 292.245 149.386 292.067 149.335 291.929C149.285 291.784 149.216 291.671 149.129 291.592C149.042 291.505 148.936 291.443 148.813 291.407C148.69 291.37 148.559 291.352 148.421 291.352C148.182 291.352 147.964 291.417 147.768 291.548C147.572 291.671 147.416 291.846 147.3 292.07C147.184 292.295 147.126 292.56 147.126 292.865V296.217H145.994ZM157.589 296.217V288.349H158.721V291.178H158.797C158.935 291.004 159.091 290.859 159.265 290.743C159.439 290.619 159.635 290.525 159.853 290.46C160.071 290.395 160.31 290.362 160.571 290.362C160.934 290.362 161.253 290.427 161.529 290.558C161.805 290.681 162.019 290.884 162.171 291.167C162.331 291.45 162.41 291.831 162.41 292.31V296.217H161.279V292.484C161.279 292.266 161.25 292.085 161.191 291.94C161.141 291.795 161.065 291.679 160.963 291.592C160.861 291.505 160.742 291.443 160.604 291.407C160.466 291.37 160.314 291.352 160.147 291.352C159.886 291.352 159.646 291.414 159.428 291.537C159.218 291.661 159.048 291.835 158.917 292.06C158.786 292.284 158.721 292.553 158.721 292.865V296.217H157.589ZM165.275 296.347C165.094 296.347 164.898 296.326 164.687 296.282C164.477 296.239 164.278 296.159 164.089 296.043C163.908 295.927 163.759 295.767 163.643 295.564C163.527 295.353 163.469 295.081 163.469 294.748C163.469 294.356 163.559 294.033 163.741 293.779C163.922 293.525 164.176 293.326 164.502 293.181C164.829 293.035 165.217 292.934 165.667 292.876C166.124 292.818 166.621 292.789 167.158 292.789V292.223C167.158 292.034 167.125 291.867 167.06 291.722C167.002 291.577 166.889 291.465 166.723 291.385C166.563 291.305 166.331 291.265 166.026 291.265C165.721 291.265 165.482 291.305 165.308 291.385C165.141 291.457 165.021 291.552 164.949 291.668C164.883 291.777 164.851 291.896 164.851 292.027V292.19H163.762C163.755 292.154 163.752 292.118 163.752 292.081C163.752 292.045 163.752 292.002 163.752 291.951C163.752 291.61 163.846 291.323 164.035 291.091C164.23 290.852 164.502 290.67 164.851 290.547C165.199 290.424 165.602 290.362 166.059 290.362C166.552 290.362 166.962 290.434 167.288 290.58C167.622 290.717 167.873 290.917 168.039 291.178C168.206 291.439 168.29 291.755 168.29 292.125V295.031C168.29 295.168 168.322 295.266 168.388 295.324C168.46 295.382 168.544 295.411 168.638 295.411H169.03V296.173C168.943 296.21 168.834 296.246 168.703 296.282C168.573 296.318 168.42 296.337 168.246 296.337C168.05 296.337 167.883 296.3 167.746 296.228C167.615 296.162 167.506 296.068 167.419 295.945C167.339 295.814 167.285 295.669 167.256 295.509H167.191C167.06 295.676 166.9 295.825 166.712 295.956C166.53 296.079 166.32 296.173 166.08 296.239C165.841 296.311 165.573 296.347 165.275 296.347ZM165.591 295.411C165.816 295.411 166.022 295.379 166.211 295.314C166.407 295.241 166.574 295.143 166.712 295.02C166.85 294.889 166.958 294.737 167.038 294.563C167.118 294.381 167.158 294.185 167.158 293.975V293.594C166.657 293.594 166.218 293.623 165.841 293.681C165.464 293.739 165.17 293.848 164.96 294.008C164.749 294.16 164.644 294.374 164.644 294.65C164.644 294.817 164.68 294.958 164.753 295.074C164.825 295.183 164.934 295.266 165.079 295.324C165.224 295.382 165.395 295.411 165.591 295.411ZM171.922 296.347C171.523 296.347 171.172 296.304 170.867 296.217C170.562 296.13 170.308 296.01 170.105 295.858C169.902 295.705 169.746 295.524 169.637 295.314C169.535 295.096 169.485 294.856 169.485 294.595C169.485 294.559 169.485 294.526 169.485 294.497C169.492 294.468 169.496 294.443 169.496 294.421H170.616C170.616 294.443 170.616 294.465 170.616 294.486C170.616 294.501 170.616 294.519 170.616 294.541C170.616 294.766 170.678 294.947 170.801 295.085C170.925 295.216 171.088 295.31 171.291 295.368C171.502 295.419 171.73 295.444 171.977 295.444C172.194 295.444 172.394 295.419 172.575 295.368C172.764 295.31 172.916 295.226 173.032 295.118C173.156 295.009 173.217 294.871 173.217 294.704C173.217 294.486 173.141 294.32 172.989 294.203C172.837 294.087 172.637 293.997 172.39 293.931C172.144 293.859 171.886 293.783 171.618 293.703C171.378 293.638 171.139 293.569 170.899 293.496C170.667 293.416 170.457 293.315 170.268 293.191C170.08 293.068 169.927 292.912 169.811 292.723C169.695 292.535 169.637 292.299 169.637 292.016C169.637 291.748 169.695 291.512 169.811 291.309C169.927 291.106 170.087 290.935 170.29 290.797C170.5 290.659 170.747 290.554 171.03 290.482C171.32 290.409 171.636 290.373 171.977 290.373C172.332 290.373 172.648 290.413 172.924 290.492C173.199 290.565 173.431 290.67 173.62 290.808C173.816 290.946 173.965 291.113 174.066 291.309C174.168 291.497 174.219 291.7 174.219 291.918C174.219 291.962 174.215 292.009 174.208 292.06C174.208 292.103 174.208 292.132 174.208 292.147H173.098V292.049C173.098 291.904 173.058 291.773 172.978 291.657C172.898 291.541 172.771 291.447 172.597 291.374C172.43 291.301 172.205 291.265 171.922 291.265C171.734 291.265 171.567 291.283 171.422 291.32C171.277 291.349 171.157 291.392 171.063 291.45C170.968 291.508 170.896 291.577 170.845 291.657C170.801 291.737 170.78 291.827 170.78 291.929C170.78 292.096 170.838 292.226 170.954 292.321C171.077 292.408 171.237 292.484 171.433 292.549C171.629 292.607 171.839 292.673 172.064 292.745C172.325 292.818 172.59 292.894 172.858 292.974C173.127 293.046 173.373 293.141 173.598 293.257C173.831 293.373 174.016 293.532 174.153 293.736C174.298 293.939 174.371 294.211 174.371 294.552C174.371 294.864 174.309 295.136 174.186 295.368C174.063 295.6 173.889 295.789 173.664 295.934C173.446 296.072 173.188 296.173 172.891 296.239C172.594 296.311 172.271 296.347 171.922 296.347ZM180.623 296.347C180.246 296.347 179.905 296.271 179.6 296.119C179.295 295.966 179.045 295.738 178.849 295.433H178.773L178.675 296.217H177.75V288.349H178.882V291.189H178.947C179.071 291 179.216 290.844 179.382 290.721C179.557 290.598 179.752 290.507 179.97 290.449C180.188 290.391 180.424 290.362 180.678 290.362C181.113 290.362 181.497 290.467 181.831 290.677C182.165 290.888 182.422 291.211 182.604 291.646C182.792 292.081 182.887 292.644 182.887 293.333C182.887 294.037 182.796 294.61 182.615 295.052C182.433 295.495 182.172 295.821 181.831 296.032C181.497 296.242 181.095 296.347 180.623 296.347ZM180.308 295.368C180.634 295.368 180.899 295.303 181.102 295.172C181.312 295.041 181.468 294.838 181.57 294.563C181.671 294.28 181.722 293.913 181.722 293.463V293.268C181.722 292.818 181.671 292.451 181.57 292.168C181.476 291.885 181.323 291.679 181.113 291.548C180.902 291.41 180.627 291.341 180.286 291.341C180.075 291.341 179.883 291.378 179.709 291.45C179.535 291.523 179.386 291.639 179.263 291.798C179.139 291.951 179.045 292.15 178.98 292.397C178.915 292.644 178.882 292.941 178.882 293.289V293.442C178.882 293.855 178.929 294.207 179.023 294.497C179.125 294.78 179.281 294.998 179.491 295.15C179.702 295.295 179.974 295.368 180.308 295.368ZM186.425 296.347C185.837 296.347 185.344 296.242 184.945 296.032C184.553 295.814 184.255 295.484 184.052 295.041C183.849 294.599 183.748 294.037 183.748 293.355C183.748 292.665 183.849 292.103 184.052 291.668C184.255 291.225 184.557 290.899 184.956 290.688C185.355 290.471 185.852 290.362 186.447 290.362C186.991 290.362 187.444 290.467 187.807 290.677C188.177 290.881 188.456 291.193 188.645 291.613C188.833 292.034 188.928 292.564 188.928 293.202V293.638H184.912C184.927 294.044 184.988 294.385 185.097 294.661C185.206 294.929 185.369 295.129 185.587 295.259C185.812 295.382 186.095 295.444 186.436 295.444C186.646 295.444 186.835 295.419 187.002 295.368C187.168 295.31 187.31 295.23 187.426 295.129C187.542 295.02 187.633 294.893 187.698 294.748C187.763 294.595 187.796 294.425 187.796 294.236H188.906C188.906 294.577 188.848 294.878 188.732 295.139C188.616 295.401 188.445 295.622 188.22 295.803C188.003 295.977 187.742 296.112 187.437 296.206C187.132 296.3 186.795 296.347 186.425 296.347ZM184.934 292.81H187.742C187.742 292.528 187.709 292.292 187.644 292.103C187.586 291.907 187.499 291.748 187.382 291.624C187.266 291.501 187.128 291.414 186.969 291.363C186.809 291.305 186.628 291.276 186.425 291.276C186.12 291.276 185.859 291.33 185.641 291.439C185.431 291.548 185.268 291.719 185.151 291.951C185.035 292.176 184.963 292.462 184.934 292.81ZM192.451 296.347C191.863 296.347 191.37 296.242 190.971 296.032C190.579 295.814 190.281 295.484 190.078 295.041C189.875 294.599 189.773 294.037 189.773 293.355C189.773 292.665 189.875 292.103 190.078 291.668C190.281 291.225 190.582 290.899 190.981 290.688C191.381 290.471 191.877 290.362 192.472 290.362C193.017 290.362 193.47 290.467 193.833 290.677C194.203 290.881 194.482 291.193 194.671 291.613C194.859 292.034 194.954 292.564 194.954 293.202V293.638H190.938C190.952 294.044 191.014 294.385 191.123 294.661C191.232 294.929 191.395 295.129 191.613 295.259C191.838 295.382 192.121 295.444 192.462 295.444C192.672 295.444 192.861 295.419 193.027 295.368C193.194 295.31 193.336 295.23 193.452 295.129C193.568 295.02 193.659 294.893 193.724 294.748C193.789 294.595 193.822 294.425 193.822 294.236H194.932C194.932 294.577 194.874 294.878 194.758 295.139C194.642 295.401 194.471 295.622 194.246 295.803C194.029 295.977 193.767 296.112 193.463 296.206C193.158 296.3 192.821 296.347 192.451 296.347ZM190.96 292.81H193.767C193.767 292.528 193.735 292.292 193.67 292.103C193.611 291.907 193.524 291.748 193.408 291.624C193.292 291.501 193.154 291.414 192.995 291.363C192.835 291.305 192.654 291.276 192.451 291.276C192.146 291.276 191.885 291.33 191.667 291.439C191.457 291.548 191.293 291.719 191.177 291.951C191.061 292.176 190.989 292.462 190.96 292.81ZM196.104 296.217V290.492H197.04L197.138 291.309H197.214C197.352 291.098 197.515 290.924 197.704 290.786C197.893 290.648 198.099 290.543 198.324 290.471C198.556 290.398 198.81 290.362 199.086 290.362C199.449 290.362 199.768 290.427 200.044 290.558C200.319 290.681 200.533 290.884 200.686 291.167C200.845 291.45 200.925 291.831 200.925 292.31V296.217H199.793V292.484C199.793 292.266 199.764 292.085 199.706 291.94C199.656 291.795 199.579 291.679 199.478 291.592C199.376 291.505 199.257 291.443 199.119 291.407C198.981 291.37 198.828 291.352 198.662 291.352C198.4 291.352 198.161 291.417 197.943 291.548C197.733 291.671 197.562 291.846 197.432 292.07C197.301 292.295 197.236 292.56 197.236 292.865V296.217H196.104ZM206.686 296.347C206.287 296.347 205.935 296.304 205.63 296.217C205.325 296.13 205.071 296.01 204.868 295.858C204.665 295.705 204.509 295.524 204.4 295.314C204.299 295.096 204.248 294.856 204.248 294.595C204.248 294.559 204.248 294.526 204.248 294.497C204.255 294.468 204.259 294.443 204.259 294.421H205.38C205.38 294.443 205.38 294.465 205.38 294.486C205.38 294.501 205.38 294.519 205.38 294.541C205.38 294.766 205.441 294.947 205.565 295.085C205.688 295.216 205.851 295.31 206.054 295.368C206.265 295.419 206.493 295.444 206.74 295.444C206.958 295.444 207.157 295.419 207.339 295.368C207.527 295.31 207.68 295.226 207.796 295.118C207.919 295.009 207.981 294.871 207.981 294.704C207.981 294.486 207.905 294.32 207.752 294.203C207.6 294.087 207.4 293.997 207.154 293.931C206.907 293.859 206.649 293.783 206.381 293.703C206.142 293.638 205.902 293.569 205.663 293.496C205.431 293.416 205.22 293.315 205.031 293.191C204.843 293.068 204.69 292.912 204.574 292.723C204.458 292.535 204.4 292.299 204.4 292.016C204.4 291.748 204.458 291.512 204.574 291.309C204.69 291.106 204.85 290.935 205.053 290.797C205.264 290.659 205.51 290.554 205.793 290.482C206.083 290.409 206.399 290.373 206.74 290.373C207.096 290.373 207.411 290.413 207.687 290.492C207.963 290.565 208.195 290.67 208.383 290.808C208.579 290.946 208.728 291.113 208.83 291.309C208.931 291.497 208.982 291.7 208.982 291.918C208.982 291.962 208.978 292.009 208.971 292.06C208.971 292.103 208.971 292.132 208.971 292.147H207.861V292.049C207.861 291.904 207.821 291.773 207.741 291.657C207.661 291.541 207.535 291.447 207.36 291.374C207.194 291.301 206.969 291.265 206.686 291.265C206.497 291.265 206.33 291.283 206.185 291.32C206.04 291.349 205.92 291.392 205.826 291.45C205.732 291.508 205.659 291.577 205.608 291.657C205.565 291.737 205.543 291.827 205.543 291.929C205.543 292.096 205.601 292.226 205.717 292.321C205.84 292.408 206 292.484 206.196 292.549C206.392 292.607 206.602 292.673 206.827 292.745C207.088 292.818 207.353 292.894 207.622 292.974C207.89 293.046 208.137 293.141 208.362 293.257C208.594 293.373 208.779 293.532 208.917 293.736C209.062 293.939 209.134 294.211 209.134 294.552C209.134 294.864 209.073 295.136 208.949 295.368C208.826 295.6 208.652 295.789 208.427 295.934C208.209 296.072 207.952 296.173 207.654 296.239C207.357 296.311 207.034 296.347 206.686 296.347ZM212.077 296.347C211.526 296.347 211.08 296.202 210.739 295.912C210.398 295.615 210.227 295.11 210.227 294.399V290.492H211.359V294.225C211.359 294.443 211.384 294.624 211.435 294.769C211.493 294.914 211.573 295.031 211.674 295.118C211.776 295.205 211.896 295.266 212.034 295.303C212.171 295.339 212.324 295.357 212.491 295.357C212.752 295.357 212.988 295.295 213.198 295.172C213.416 295.041 213.59 294.864 213.72 294.639C213.851 294.407 213.916 294.142 213.916 293.844V290.492H215.048V296.217H214.123L214.025 295.401H213.949C213.811 295.611 213.648 295.785 213.459 295.923C213.271 296.061 213.06 296.166 212.828 296.239C212.603 296.311 212.353 296.347 212.077 296.347ZM219.382 296.347C219.005 296.347 218.664 296.271 218.359 296.119C218.055 295.966 217.804 295.738 217.608 295.433H217.532L217.434 296.217H216.509V288.349H217.641V291.189H217.706C217.83 291 217.975 290.844 218.142 290.721C218.316 290.598 218.512 290.507 218.729 290.449C218.947 290.391 219.183 290.362 219.437 290.362C219.872 290.362 220.257 290.467 220.59 290.677C220.924 290.888 221.182 291.211 221.363 291.646C221.552 292.081 221.646 292.644 221.646 293.333C221.646 294.037 221.555 294.61 221.374 295.052C221.193 295.495 220.931 295.821 220.59 296.032C220.257 296.242 219.854 296.347 219.382 296.347ZM219.067 295.368C219.393 295.368 219.658 295.303 219.861 295.172C220.072 295.041 220.228 294.838 220.329 294.563C220.431 294.28 220.482 293.913 220.482 293.463V293.268C220.482 292.818 220.431 292.451 220.329 292.168C220.235 291.885 220.083 291.679 219.872 291.548C219.662 291.41 219.386 291.341 219.045 291.341C218.835 291.341 218.642 291.378 218.468 291.45C218.294 291.523 218.145 291.639 218.022 291.798C217.899 291.951 217.804 292.15 217.739 292.397C217.674 292.644 217.641 292.941 217.641 293.289V293.442C217.641 293.855 217.688 294.207 217.783 294.497C217.884 294.78 218.04 294.998 218.251 295.15C218.461 295.295 218.733 295.368 219.067 295.368ZM222.812 296.217V290.492H223.747L223.845 291.309H223.922C224.052 291.098 224.201 290.924 224.368 290.786C224.542 290.648 224.734 290.543 224.945 290.471C225.162 290.398 225.394 290.362 225.641 290.362C225.997 290.362 226.305 290.434 226.566 290.58C226.835 290.725 227.038 290.968 227.176 291.309H227.252C227.382 291.106 227.535 290.935 227.709 290.797C227.883 290.652 228.079 290.543 228.296 290.471C228.521 290.398 228.761 290.362 229.015 290.362C229.356 290.362 229.657 290.424 229.918 290.547C230.179 290.663 230.386 290.862 230.538 291.145C230.691 291.421 230.767 291.791 230.767 292.255V296.217H229.635V292.462C229.635 292.245 229.61 292.067 229.559 291.929C229.508 291.784 229.439 291.671 229.352 291.592C229.265 291.505 229.16 291.443 229.037 291.407C228.913 291.37 228.779 291.352 228.634 291.352C228.394 291.352 228.18 291.417 227.992 291.548C227.803 291.671 227.651 291.846 227.535 292.07C227.419 292.295 227.361 292.56 227.361 292.865V296.217H226.229V292.462C226.229 292.245 226.203 292.067 226.153 291.929C226.102 291.784 226.033 291.671 225.946 291.592C225.859 291.505 225.754 291.443 225.63 291.407C225.507 291.37 225.376 291.352 225.238 291.352C224.999 291.352 224.781 291.417 224.585 291.548C224.39 291.671 224.234 291.846 224.117 292.07C224.001 292.295 223.943 292.56 223.943 292.865V296.217H222.812ZM232.175 289.502V288.349H233.306V289.502H232.175ZM232.175 296.217V290.492H233.306V296.217H232.175ZM236.193 296.347C235.867 296.347 235.609 296.286 235.421 296.162C235.239 296.032 235.109 295.869 235.029 295.673C234.956 295.47 234.92 295.255 234.92 295.031V291.428H234.202V290.492H234.942L235.149 288.893H236.052V290.492H237.086V291.428H236.052V294.9C236.052 295.067 236.088 295.194 236.161 295.281C236.233 295.368 236.353 295.411 236.52 295.411H237.086V296.173C237.013 296.202 236.923 296.228 236.814 296.249C236.712 296.278 236.607 296.3 236.498 296.315C236.389 296.337 236.288 296.347 236.193 296.347ZM239.509 296.347C239.183 296.347 238.925 296.286 238.737 296.162C238.555 296.032 238.425 295.869 238.345 295.673C238.272 295.47 238.236 295.255 238.236 295.031V291.428H237.518V290.492H238.258L238.464 288.893H239.368V290.492H240.402V291.428H239.368V294.9C239.368 295.067 239.404 295.194 239.477 295.281C239.549 295.368 239.669 295.411 239.836 295.411H240.402V296.173C240.329 296.202 240.238 296.228 240.13 296.249C240.028 296.278 239.923 296.3 239.814 296.315C239.705 296.337 239.604 296.347 239.509 296.347ZM243.772 296.347C243.184 296.347 242.691 296.242 242.292 296.032C241.9 295.814 241.603 295.484 241.399 295.041C241.196 294.599 241.095 294.037 241.095 293.355C241.095 292.665 241.196 292.103 241.399 291.668C241.603 291.225 241.904 290.899 242.303 290.688C242.702 290.471 243.199 290.362 243.794 290.362C244.338 290.362 244.791 290.467 245.154 290.677C245.524 290.881 245.803 291.193 245.992 291.613C246.181 292.034 246.275 292.564 246.275 293.202V293.638H242.259C242.274 294.044 242.335 294.385 242.444 294.661C242.553 294.929 242.716 295.129 242.934 295.259C243.159 295.382 243.442 295.444 243.783 295.444C243.993 295.444 244.182 295.419 244.349 295.368C244.516 295.31 244.657 295.23 244.773 295.129C244.889 295.02 244.98 294.893 245.045 294.748C245.11 294.595 245.143 294.425 245.143 294.236H246.253C246.253 294.577 246.195 294.878 246.079 295.139C245.963 295.401 245.792 295.622 245.568 295.803C245.35 295.977 245.089 296.112 244.784 296.206C244.479 296.3 244.142 296.347 243.772 296.347ZM242.281 292.81H245.089C245.089 292.528 245.056 292.292 244.991 292.103C244.933 291.907 244.846 291.748 244.73 291.624C244.613 291.501 244.476 291.414 244.316 291.363C244.156 291.305 243.975 291.276 243.772 291.276C243.467 291.276 243.206 291.33 242.988 291.439C242.778 291.548 242.615 291.719 242.499 291.951C242.383 292.176 242.31 292.462 242.281 292.81ZM249.395 296.347C248.931 296.347 248.528 296.242 248.187 296.032C247.846 295.821 247.581 295.495 247.393 295.052C247.211 294.61 247.121 294.037 247.121 293.333C247.121 292.644 247.215 292.081 247.404 291.646C247.592 291.211 247.853 290.888 248.187 290.677C248.521 290.467 248.905 290.362 249.341 290.362C249.595 290.362 249.83 290.391 250.048 290.449C250.266 290.507 250.458 290.598 250.625 290.721C250.799 290.844 250.944 291 251.06 291.189H251.136V288.349H252.268V296.217H251.343L251.234 295.433H251.158C250.97 295.738 250.719 295.966 250.407 296.119C250.103 296.271 249.765 296.347 249.395 296.347ZM249.711 295.368C250.044 295.368 250.313 295.295 250.516 295.15C250.726 294.998 250.882 294.78 250.984 294.497C251.086 294.207 251.136 293.855 251.136 293.442V293.289C251.136 292.941 251.104 292.644 251.038 292.397C250.973 292.15 250.879 291.951 250.755 291.798C250.632 291.639 250.483 291.523 250.309 291.45C250.135 291.378 249.939 291.341 249.722 291.341C249.388 291.341 249.116 291.41 248.905 291.548C248.695 291.679 248.539 291.885 248.437 292.168C248.343 292.451 248.296 292.818 248.296 293.268V293.463C248.296 293.913 248.347 294.28 248.448 294.563C248.55 294.838 248.702 295.041 248.905 295.172C249.116 295.303 249.384 295.368 249.711 295.368ZM258.071 296.347C257.672 296.347 257.32 296.304 257.015 296.217C256.71 296.13 256.456 296.01 256.253 295.858C256.05 295.705 255.894 295.524 255.785 295.314C255.684 295.096 255.633 294.856 255.633 294.595C255.633 294.559 255.633 294.526 255.633 294.497C255.64 294.468 255.644 294.443 255.644 294.421H256.765C256.765 294.443 256.765 294.465 256.765 294.486C256.765 294.501 256.765 294.519 256.765 294.541C256.765 294.766 256.826 294.947 256.95 295.085C257.073 295.216 257.236 295.31 257.439 295.368C257.65 295.419 257.878 295.444 258.125 295.444C258.343 295.444 258.542 295.419 258.724 295.368C258.912 295.31 259.065 295.226 259.181 295.118C259.304 295.009 259.366 294.871 259.366 294.704C259.366 294.486 259.29 294.32 259.137 294.203C258.985 294.087 258.785 293.997 258.539 293.931C258.292 293.859 258.034 293.783 257.766 293.703C257.527 293.638 257.287 293.569 257.048 293.496C256.816 293.416 256.605 293.315 256.416 293.191C256.228 293.068 256.075 292.912 255.959 292.723C255.843 292.535 255.785 292.299 255.785 292.016C255.785 291.748 255.843 291.512 255.959 291.309C256.075 291.106 256.235 290.935 256.438 290.797C256.649 290.659 256.895 290.554 257.178 290.482C257.468 290.409 257.784 290.373 258.125 290.373C258.481 290.373 258.796 290.413 259.072 290.492C259.348 290.565 259.58 290.67 259.768 290.808C259.964 290.946 260.113 291.113 260.215 291.309C260.316 291.497 260.367 291.7 260.367 291.918C260.367 291.962 260.363 292.009 260.356 292.06C260.356 292.103 260.356 292.132 260.356 292.147H259.246V292.049C259.246 291.904 259.206 291.773 259.126 291.657C259.046 291.541 258.92 291.447 258.745 291.374C258.579 291.301 258.354 291.265 258.071 291.265C257.882 291.265 257.715 291.283 257.57 291.32C257.425 291.349 257.305 291.392 257.211 291.45C257.117 291.508 257.044 291.577 256.993 291.657C256.95 291.737 256.928 291.827 256.928 291.929C256.928 292.096 256.986 292.226 257.102 292.321C257.225 292.408 257.385 292.484 257.581 292.549C257.777 292.607 257.987 292.673 258.212 292.745C258.473 292.818 258.738 292.894 259.007 292.974C259.275 293.046 259.522 293.141 259.747 293.257C259.979 293.373 260.164 293.532 260.302 293.736C260.447 293.939 260.519 294.211 260.519 294.552C260.519 294.864 260.458 295.136 260.334 295.368C260.211 295.6 260.037 295.789 259.812 295.934C259.594 296.072 259.337 296.173 259.039 296.239C258.742 296.311 258.419 296.347 258.071 296.347ZM263.462 296.347C262.911 296.347 262.465 296.202 262.124 295.912C261.783 295.615 261.612 295.11 261.612 294.399V290.492H262.744V294.225C262.744 294.443 262.769 294.624 262.82 294.769C262.878 294.914 262.958 295.031 263.059 295.118C263.161 295.205 263.281 295.266 263.419 295.303C263.556 295.339 263.709 295.357 263.876 295.357C264.137 295.357 264.373 295.295 264.583 295.172C264.801 295.041 264.975 294.864 265.105 294.639C265.236 294.407 265.301 294.142 265.301 293.844V290.492H266.433V296.217H265.508L265.41 295.401H265.334C265.196 295.611 265.033 295.785 264.844 295.923C264.656 296.061 264.445 296.166 264.213 296.239C263.988 296.311 263.738 296.347 263.462 296.347ZM270.169 296.347C269.596 296.347 269.117 296.242 268.732 296.032C268.348 295.814 268.058 295.484 267.862 295.041C267.673 294.599 267.579 294.037 267.579 293.355C267.579 292.673 267.677 292.114 267.873 291.679C268.068 291.236 268.359 290.906 268.743 290.688C269.135 290.471 269.614 290.362 270.18 290.362C270.571 290.362 270.912 290.413 271.203 290.514C271.493 290.609 271.74 290.754 271.943 290.95C272.146 291.138 272.295 291.374 272.389 291.657C272.49 291.94 272.541 292.263 272.541 292.625H271.399C271.399 292.321 271.355 292.07 271.268 291.875C271.181 291.679 271.047 291.534 270.865 291.439C270.684 291.338 270.448 291.287 270.158 291.287C269.853 291.287 269.596 291.359 269.385 291.505C269.175 291.642 269.015 291.856 268.906 292.147C268.798 292.43 268.743 292.803 268.743 293.268V293.453C268.743 293.895 268.794 294.265 268.896 294.563C269.004 294.853 269.164 295.07 269.374 295.216C269.592 295.353 269.868 295.422 270.201 295.422C270.492 295.422 270.724 295.372 270.898 295.27C271.079 295.161 271.214 295.009 271.301 294.813C271.395 294.61 271.442 294.367 271.442 294.084H272.541C272.541 294.425 272.49 294.733 272.389 295.009C272.295 295.285 272.146 295.524 271.943 295.727C271.747 295.923 271.5 296.075 271.203 296.184C270.905 296.293 270.561 296.347 270.169 296.347ZM275.961 296.347C275.388 296.347 274.909 296.242 274.524 296.032C274.14 295.814 273.85 295.484 273.654 295.041C273.465 294.599 273.371 294.037 273.371 293.355C273.371 292.673 273.469 292.114 273.665 291.679C273.861 291.236 274.151 290.906 274.535 290.688C274.927 290.471 275.406 290.362 275.972 290.362C276.364 290.362 276.705 290.413 276.995 290.514C277.285 290.609 277.532 290.754 277.735 290.95C277.938 291.138 278.087 291.374 278.181 291.657C278.283 291.94 278.333 292.263 278.333 292.625H277.191C277.191 292.321 277.147 292.07 277.06 291.875C276.973 291.679 276.839 291.534 276.657 291.439C276.476 291.338 276.24 291.287 275.95 291.287C275.645 291.287 275.388 291.359 275.177 291.505C274.967 291.642 274.807 291.856 274.699 292.147C274.59 292.43 274.535 292.803 274.535 293.268V293.453C274.535 293.895 274.586 294.265 274.688 294.563C274.796 294.853 274.956 295.07 275.166 295.216C275.384 295.353 275.66 295.422 275.994 295.422C276.284 295.422 276.516 295.372 276.69 295.27C276.871 295.161 277.006 295.009 277.093 294.813C277.187 294.61 277.234 294.367 277.234 294.084H278.333C278.333 294.425 278.283 294.733 278.181 295.009C278.087 295.285 277.938 295.524 277.735 295.727C277.539 295.923 277.292 296.075 276.995 296.184C276.697 296.293 276.353 296.347 275.961 296.347ZM281.851 296.347C281.263 296.347 280.77 296.242 280.371 296.032C279.979 295.814 279.682 295.484 279.479 295.041C279.275 294.599 279.174 294.037 279.174 293.355C279.174 292.665 279.275 292.103 279.479 291.668C279.682 291.225 279.983 290.899 280.382 290.688C280.781 290.471 281.278 290.362 281.873 290.362C282.417 290.362 282.87 290.467 283.233 290.677C283.603 290.881 283.882 291.193 284.071 291.613C284.26 292.034 284.354 292.564 284.354 293.202V293.638H280.338C280.353 294.044 280.414 294.385 280.523 294.661C280.632 294.929 280.795 295.129 281.013 295.259C281.238 295.382 281.521 295.444 281.862 295.444C282.072 295.444 282.261 295.419 282.428 295.368C282.595 295.31 282.736 295.23 282.852 295.129C282.968 295.02 283.059 294.893 283.124 294.748C283.19 294.595 283.222 294.425 283.222 294.236H284.332C284.332 294.577 284.274 294.878 284.158 295.139C284.042 295.401 283.872 295.622 283.647 295.803C283.429 295.977 283.168 296.112 282.863 296.206C282.558 296.3 282.221 296.347 281.851 296.347ZM280.36 292.81H283.168C283.168 292.528 283.135 292.292 283.07 292.103C283.012 291.907 282.925 291.748 282.809 291.624C282.693 291.501 282.555 291.414 282.395 291.363C282.235 291.305 282.054 291.276 281.851 291.276C281.546 291.276 281.285 291.33 281.067 291.439C280.857 291.548 280.694 291.719 280.578 291.951C280.462 292.176 280.389 292.462 280.36 292.81ZM287.616 296.347C287.217 296.347 286.865 296.304 286.56 296.217C286.255 296.13 286.001 296.01 285.798 295.858C285.595 295.705 285.439 295.524 285.33 295.314C285.229 295.096 285.178 294.856 285.178 294.595C285.178 294.559 285.178 294.526 285.178 294.497C285.185 294.468 285.189 294.443 285.189 294.421H286.31C286.31 294.443 286.31 294.465 286.31 294.486C286.31 294.501 286.31 294.519 286.31 294.541C286.31 294.766 286.371 294.947 286.495 295.085C286.618 295.216 286.781 295.31 286.985 295.368C287.195 295.419 287.423 295.444 287.67 295.444C287.888 295.444 288.087 295.419 288.269 295.368C288.457 295.31 288.61 295.226 288.726 295.118C288.849 295.009 288.911 294.871 288.911 294.704C288.911 294.486 288.835 294.32 288.682 294.203C288.53 294.087 288.33 293.997 288.084 293.931C287.837 293.859 287.579 293.783 287.311 293.703C287.072 293.638 286.832 293.569 286.593 293.496C286.361 293.416 286.15 293.315 285.962 293.191C285.773 293.068 285.621 292.912 285.504 292.723C285.388 292.535 285.33 292.299 285.33 292.016C285.33 291.748 285.388 291.512 285.504 291.309C285.621 291.106 285.78 290.935 285.983 290.797C286.194 290.659 286.44 290.554 286.723 290.482C287.014 290.409 287.329 290.373 287.67 290.373C288.026 290.373 288.341 290.413 288.617 290.492C288.893 290.565 289.125 290.67 289.313 290.808C289.509 290.946 289.658 291.113 289.76 291.309C289.861 291.497 289.912 291.7 289.912 291.918C289.912 291.962 289.908 292.009 289.901 292.06C289.901 292.103 289.901 292.132 289.901 292.147H288.791V292.049C288.791 291.904 288.751 291.773 288.671 291.657C288.592 291.541 288.465 291.447 288.29 291.374C288.124 291.301 287.899 291.265 287.616 291.265C287.427 291.265 287.26 291.283 287.115 291.32C286.97 291.349 286.85 291.392 286.756 291.45C286.662 291.508 286.589 291.577 286.538 291.657C286.495 291.737 286.473 291.827 286.473 291.929C286.473 292.096 286.531 292.226 286.647 292.321C286.77 292.408 286.93 292.484 287.126 292.549C287.322 292.607 287.532 292.673 287.757 292.745C288.018 292.818 288.283 292.894 288.552 292.974C288.82 293.046 289.067 293.141 289.292 293.257C289.524 293.373 289.709 293.532 289.847 293.736C289.992 293.939 290.064 294.211 290.064 294.552C290.064 294.864 290.003 295.136 289.879 295.368C289.756 295.6 289.582 295.789 289.357 295.934C289.139 296.072 288.882 296.173 288.584 296.239C288.287 296.311 287.964 296.347 287.616 296.347ZM293.323 296.347C292.924 296.347 292.572 296.304 292.267 296.217C291.962 296.13 291.709 296.01 291.505 295.858C291.302 295.705 291.146 295.524 291.037 295.314C290.936 295.096 290.885 294.856 290.885 294.595C290.885 294.559 290.885 294.526 290.885 294.497C290.892 294.468 290.896 294.443 290.896 294.421H292.017C292.017 294.443 292.017 294.465 292.017 294.486C292.017 294.501 292.017 294.519 292.017 294.541C292.017 294.766 292.079 294.947 292.202 295.085C292.325 295.216 292.488 295.31 292.692 295.368C292.902 295.419 293.131 295.444 293.377 295.444C293.595 295.444 293.794 295.419 293.976 295.368C294.164 295.31 294.317 295.226 294.433 295.118C294.556 295.009 294.618 294.871 294.618 294.704C294.618 294.486 294.542 294.32 294.389 294.203C294.237 294.087 294.037 293.997 293.791 293.931C293.544 293.859 293.287 293.783 293.018 293.703C292.779 293.638 292.539 293.569 292.3 293.496C292.068 293.416 291.857 293.315 291.669 293.191C291.48 293.068 291.328 292.912 291.212 292.723C291.095 292.535 291.037 292.299 291.037 292.016C291.037 291.748 291.095 291.512 291.212 291.309C291.328 291.106 291.487 290.935 291.69 290.797C291.901 290.659 292.147 290.554 292.43 290.482C292.721 290.409 293.036 290.373 293.377 290.373C293.733 290.373 294.048 290.413 294.324 290.492C294.6 290.565 294.832 290.67 295.021 290.808C295.216 290.946 295.365 291.113 295.467 291.309C295.568 291.497 295.619 291.7 295.619 291.918C295.619 291.962 295.615 292.009 295.608 292.06C295.608 292.103 295.608 292.132 295.608 292.147H294.498V292.049C294.498 291.904 294.458 291.773 294.378 291.657C294.299 291.541 294.172 291.447 293.998 291.374C293.831 291.301 293.606 291.265 293.323 291.265C293.134 291.265 292.967 291.283 292.822 291.32C292.677 291.349 292.557 291.392 292.463 291.45C292.369 291.508 292.296 291.577 292.245 291.657C292.202 291.737 292.18 291.827 292.18 291.929C292.18 292.096 292.238 292.226 292.354 292.321C292.478 292.408 292.637 292.484 292.833 292.549C293.029 292.607 293.239 292.673 293.464 292.745C293.725 292.818 293.99 292.894 294.259 292.974C294.527 293.046 294.774 293.141 294.999 293.257C295.231 293.373 295.416 293.532 295.554 293.736C295.699 293.939 295.771 294.211 295.771 294.552C295.771 294.864 295.71 295.136 295.586 295.368C295.463 295.6 295.289 295.789 295.064 295.934C294.846 296.072 294.589 296.173 294.291 296.239C293.994 296.311 293.671 296.347 293.323 296.347ZM297.169 296.217V291.428H296.331V290.492H297.169V289.665C297.169 289.426 297.205 289.201 297.278 288.991C297.358 288.78 297.492 288.606 297.68 288.468C297.876 288.33 298.152 288.261 298.507 288.261C298.609 288.261 298.711 288.269 298.812 288.283C298.921 288.291 299.023 288.305 299.117 288.327C299.211 288.349 299.295 288.374 299.367 288.403V289.197H298.812C298.638 289.197 298.507 289.241 298.42 289.328C298.341 289.415 298.301 289.542 298.301 289.709V290.492H299.367V291.428H298.301V296.217H297.169ZM301.903 296.347C301.351 296.347 300.905 296.202 300.564 295.912C300.223 295.615 300.053 295.11 300.053 294.399V290.492H301.184V294.225C301.184 294.443 301.21 294.624 301.26 294.769C301.319 294.914 301.398 295.031 301.5 295.118C301.601 295.205 301.721 295.266 301.859 295.303C301.997 295.339 302.149 295.357 302.316 295.357C302.577 295.357 302.813 295.295 303.024 295.172C303.241 295.041 303.415 294.864 303.546 294.639C303.676 294.407 303.742 294.142 303.742 293.844V290.492H304.874V296.217H303.949L303.851 295.401H303.774C303.637 295.611 303.473 295.785 303.285 295.923C303.096 296.061 302.886 296.166 302.653 296.239C302.429 296.311 302.178 296.347 301.903 296.347ZM306.335 296.217V288.349H307.467V296.217H306.335ZM308.928 296.217V288.349H310.06V296.217H308.928ZM312.141 298.197C311.924 298.197 311.742 298.179 311.597 298.143C311.452 298.114 311.361 298.096 311.325 298.089V297.272H311.869C312.029 297.272 312.189 297.236 312.348 297.164C312.515 297.091 312.664 296.975 312.794 296.815C312.925 296.656 313.034 296.456 313.121 296.217L310.89 290.492H312.076L313.186 293.344C313.237 293.474 313.291 293.638 313.349 293.833C313.415 294.029 313.476 294.229 313.534 294.432C313.6 294.635 313.654 294.817 313.698 294.976H313.752C313.788 294.867 313.825 294.744 313.861 294.606C313.904 294.461 313.948 294.312 313.991 294.16C314.035 294.008 314.079 293.862 314.122 293.725C314.166 293.58 314.202 293.456 314.231 293.355L315.156 290.492H316.31L314.372 295.999C314.264 296.304 314.144 296.59 314.013 296.859C313.883 297.127 313.73 297.359 313.556 297.555C313.389 297.759 313.19 297.915 312.958 298.023C312.725 298.139 312.453 298.197 312.141 298.197ZM316.054 296.217V294.954H317.262V296.217H316.054ZM321.345 296.217V288.751H322.564V296.217H321.345ZM325.604 296.347C325.278 296.347 325.02 296.286 324.832 296.162C324.65 296.032 324.52 295.869 324.44 295.673C324.367 295.47 324.331 295.255 324.331 295.031V291.428H323.613V290.492H324.353L324.56 288.893H325.463V290.492H326.497V291.428H325.463V294.9C325.463 295.067 325.499 295.194 325.572 295.281C325.644 295.368 325.764 295.411 325.931 295.411H326.497V296.173C326.424 296.202 326.333 296.228 326.225 296.249C326.123 296.278 326.018 296.3 325.909 296.315C325.8 296.337 325.699 296.347 325.604 296.347ZM330.793 296.217L329.073 290.492H330.249L331.087 293.627C331.13 293.779 331.167 293.939 331.196 294.106C331.232 294.272 331.264 294.421 331.293 294.552C331.323 294.682 331.344 294.773 331.359 294.824H331.424C331.453 294.693 331.486 294.544 331.522 294.378C331.558 294.211 331.591 294.058 331.62 293.921C331.649 293.775 331.671 293.667 331.685 293.594L332.447 290.492H333.666L334.449 293.605C334.479 293.721 334.508 293.855 334.537 294.008C334.573 294.153 334.605 294.298 334.634 294.443C334.671 294.588 334.696 294.715 334.711 294.824H334.776C334.798 294.722 334.823 294.603 334.852 294.465C334.888 294.32 334.925 294.174 334.961 294.029C334.997 293.884 335.03 293.75 335.059 293.627L335.886 290.492H336.963L335.255 296.217H334.079L333.383 293.366C333.354 293.228 333.318 293.068 333.274 292.887C333.231 292.705 333.191 292.524 333.154 292.343C333.118 292.161 333.089 292.002 333.067 291.864H333.002C332.988 291.943 332.966 292.06 332.937 292.212C332.915 292.364 332.882 292.538 332.839 292.734C332.795 292.93 332.745 293.141 332.686 293.366L331.968 296.217H330.793ZM340.199 296.347C339.604 296.347 339.099 296.242 338.686 296.032C338.28 295.814 337.971 295.484 337.761 295.041C337.558 294.599 337.456 294.037 337.456 293.355C337.456 292.665 337.558 292.103 337.761 291.668C337.971 291.225 338.28 290.899 338.686 290.688C339.099 290.471 339.604 290.362 340.199 290.362C340.808 290.362 341.316 290.471 341.722 290.688C342.129 290.899 342.433 291.225 342.636 291.668C342.847 292.103 342.952 292.665 342.952 293.355C342.952 294.037 342.847 294.599 342.636 295.041C342.433 295.484 342.129 295.814 341.722 296.032C341.316 296.242 340.808 296.347 340.199 296.347ZM340.199 295.411C340.561 295.411 340.859 295.343 341.091 295.205C341.323 295.06 341.494 294.842 341.603 294.552C341.719 294.262 341.777 293.895 341.777 293.453V293.257C341.777 292.814 341.719 292.448 341.603 292.158C341.494 291.867 341.323 291.653 341.091 291.515C340.859 291.37 340.561 291.298 340.199 291.298C339.843 291.298 339.549 291.37 339.317 291.515C339.085 291.653 338.911 291.867 338.795 292.158C338.686 292.448 338.632 292.814 338.632 293.257V293.453C338.632 293.895 338.686 294.262 338.795 294.552C338.911 294.842 339.085 295.06 339.317 295.205C339.549 295.343 339.843 295.411 340.199 295.411ZM345.901 296.347C345.35 296.347 344.904 296.202 344.563 295.912C344.222 295.615 344.051 295.11 344.051 294.399V290.492H345.183V294.225C345.183 294.443 345.208 294.624 345.259 294.769C345.317 294.914 345.397 295.031 345.499 295.118C345.6 295.205 345.72 295.266 345.858 295.303C345.996 295.339 346.148 295.357 346.315 295.357C346.576 295.357 346.812 295.295 347.022 295.172C347.24 295.041 347.414 294.864 347.545 294.639C347.675 294.407 347.74 294.142 347.74 293.844V290.492H348.872V296.217H347.947L347.849 295.401H347.773C347.635 295.611 347.472 295.785 347.283 295.923C347.095 296.061 346.884 296.166 346.652 296.239C346.427 296.311 346.177 296.347 345.901 296.347ZM350.333 296.217V288.349H351.465V296.217H350.333ZM354.896 296.347C354.432 296.347 354.029 296.242 353.688 296.032C353.347 295.821 353.083 295.495 352.894 295.052C352.713 294.61 352.622 294.037 352.622 293.333C352.622 292.644 352.716 292.081 352.905 291.646C353.094 291.211 353.355 290.888 353.688 290.677C354.022 290.467 354.407 290.362 354.842 290.362C355.096 290.362 355.332 290.391 355.549 290.449C355.767 290.507 355.959 290.598 356.126 290.721C356.3 290.844 356.445 291 356.562 291.189H356.638V288.349H357.77V296.217H356.844L356.736 295.433H356.659C356.471 295.738 356.221 295.966 355.909 296.119C355.604 296.271 355.266 296.347 354.896 296.347ZM355.212 295.368C355.546 295.368 355.814 295.295 356.017 295.15C356.228 294.998 356.384 294.78 356.485 294.497C356.587 294.207 356.638 293.855 356.638 293.442V293.289C356.638 292.941 356.605 292.644 356.54 292.397C356.474 292.15 356.38 291.951 356.257 291.798C356.133 291.639 355.985 291.523 355.811 291.45C355.636 291.378 355.441 291.341 355.223 291.341C354.889 291.341 354.617 291.41 354.407 291.548C354.196 291.679 354.04 291.885 353.939 292.168C353.844 292.451 353.797 292.818 353.797 293.268V293.463C353.797 293.913 353.848 294.28 353.95 294.563C354.051 294.838 354.204 295.041 354.407 295.172C354.617 295.303 354.886 295.368 355.212 295.368ZM364.334 296.347C363.956 296.347 363.615 296.271 363.311 296.119C363.006 295.966 362.756 295.738 362.56 295.433H362.484L362.386 296.217H361.461V288.349H362.593V291.189H362.658C362.781 291 362.926 290.844 363.093 290.721C363.267 290.598 363.463 290.507 363.681 290.449C363.898 290.391 364.134 290.362 364.388 290.362C364.823 290.362 365.208 290.467 365.542 290.677C365.875 290.888 366.133 291.211 366.314 291.646C366.503 292.081 366.597 292.644 366.597 293.333C366.597 294.037 366.507 294.61 366.325 295.052C366.144 295.495 365.883 295.821 365.542 296.032C365.208 296.242 364.805 296.347 364.334 296.347ZM364.018 295.368C364.345 295.368 364.609 295.303 364.813 295.172C365.023 295.041 365.179 294.838 365.281 294.563C365.382 294.28 365.433 293.913 365.433 293.463V293.268C365.433 292.818 365.382 292.451 365.281 292.168C365.186 291.885 365.034 291.679 364.823 291.548C364.613 291.41 364.337 291.341 363.996 291.341C363.786 291.341 363.594 291.378 363.42 291.45C363.245 291.523 363.097 291.639 362.973 291.798C362.85 291.951 362.756 292.15 362.69 292.397C362.625 292.644 362.593 292.941 362.593 293.289V293.442C362.593 293.855 362.64 294.207 362.734 294.497C362.836 294.78 362.992 294.998 363.202 295.15C363.412 295.295 363.684 295.368 364.018 295.368ZM370.135 296.347C369.548 296.347 369.054 296.242 368.655 296.032C368.264 295.814 367.966 295.484 367.763 295.041C367.56 294.599 367.458 294.037 367.458 293.355C367.458 292.665 367.56 292.103 367.763 291.668C367.966 291.225 368.267 290.899 368.666 290.688C369.065 290.471 369.562 290.362 370.157 290.362C370.701 290.362 371.155 290.467 371.518 290.677C371.888 290.881 372.167 291.193 372.355 291.613C372.544 292.034 372.638 292.564 372.638 293.202V293.638H368.623C368.637 294.044 368.699 294.385 368.808 294.661C368.917 294.929 369.08 295.129 369.297 295.259C369.522 295.382 369.805 295.444 370.146 295.444C370.357 295.444 370.545 295.419 370.712 295.368C370.879 295.31 371.021 295.23 371.137 295.129C371.253 295.02 371.343 294.893 371.409 294.748C371.474 294.595 371.507 294.425 371.507 294.236H372.617C372.617 294.577 372.559 294.878 372.443 295.139C372.326 295.401 372.156 295.622 371.931 295.803C371.713 295.977 371.452 296.112 371.147 296.206C370.843 296.3 370.505 296.347 370.135 296.347ZM368.644 292.81H371.452C371.452 292.528 371.42 292.292 371.354 292.103C371.296 291.907 371.209 291.748 371.093 291.624C370.977 291.501 370.839 291.414 370.68 291.363C370.52 291.305 370.339 291.276 370.135 291.276C369.831 291.276 369.569 291.33 369.352 291.439C369.141 291.548 368.978 291.719 368.862 291.951C368.746 292.176 368.673 292.462 368.644 292.81ZM377.468 296.347C377.287 296.347 377.091 296.326 376.88 296.282C376.67 296.239 376.47 296.159 376.282 296.043C376.1 295.927 375.952 295.767 375.836 295.564C375.72 295.353 375.662 295.081 375.662 294.748C375.662 294.356 375.752 294.033 375.934 293.779C376.115 293.525 376.369 293.326 376.695 293.181C377.022 293.035 377.41 292.934 377.86 292.876C378.317 292.818 378.814 292.789 379.351 292.789V292.223C379.351 292.034 379.318 291.867 379.253 291.722C379.195 291.577 379.082 291.465 378.915 291.385C378.756 291.305 378.524 291.265 378.219 291.265C377.914 291.265 377.675 291.305 377.501 291.385C377.334 291.457 377.214 291.552 377.142 291.668C377.076 291.777 377.044 291.896 377.044 292.027V292.19H375.955C375.948 292.154 375.944 292.118 375.944 292.081C375.944 292.045 375.944 292.002 375.944 291.951C375.944 291.61 376.039 291.323 376.227 291.091C376.423 290.852 376.695 290.67 377.044 290.547C377.392 290.424 377.795 290.362 378.252 290.362C378.745 290.362 379.155 290.434 379.481 290.58C379.815 290.717 380.065 290.917 380.232 291.178C380.399 291.439 380.483 291.755 380.483 292.125V295.031C380.483 295.168 380.515 295.266 380.581 295.324C380.653 295.382 380.737 295.411 380.831 295.411H381.223V296.173C381.136 296.21 381.027 296.246 380.896 296.282C380.766 296.318 380.613 296.337 380.439 296.337C380.243 296.337 380.076 296.3 379.938 296.228C379.808 296.162 379.699 296.068 379.612 295.945C379.532 295.814 379.478 295.669 379.449 295.509H379.383C379.253 295.676 379.093 295.825 378.905 295.956C378.723 296.079 378.513 296.173 378.273 296.239C378.034 296.311 377.766 296.347 377.468 296.347ZM377.784 295.411C378.009 295.411 378.215 295.379 378.404 295.314C378.6 295.241 378.767 295.143 378.905 295.02C379.042 294.889 379.151 294.737 379.231 294.563C379.311 294.381 379.351 294.185 379.351 293.975V293.594C378.85 293.594 378.411 293.623 378.034 293.681C377.657 293.739 377.363 293.848 377.152 294.008C376.942 294.16 376.837 294.374 376.837 294.65C376.837 294.817 376.873 294.958 376.946 295.074C377.018 295.183 377.127 295.266 377.272 295.324C377.417 295.382 377.588 295.411 377.784 295.411ZM382.004 298.1V290.492H382.929L383.027 291.276H383.103C383.299 290.971 383.549 290.743 383.854 290.59C384.159 290.438 384.5 290.362 384.877 290.362C385.349 290.362 385.751 290.467 386.085 290.677C386.426 290.888 386.687 291.214 386.869 291.657C387.05 292.099 387.141 292.673 387.141 293.376C387.141 294.058 387.046 294.621 386.858 295.063C386.676 295.499 386.419 295.821 386.085 296.032C385.751 296.242 385.367 296.347 384.932 296.347C384.678 296.347 384.442 296.318 384.224 296.26C384.007 296.202 383.811 296.112 383.636 295.988C383.47 295.865 383.325 295.709 383.201 295.52H383.136V298.1H382.004ZM384.54 295.368C384.881 295.368 385.156 295.303 385.367 295.172C385.577 295.034 385.73 294.824 385.824 294.541C385.925 294.258 385.976 293.899 385.976 293.463V293.268C385.976 292.81 385.925 292.44 385.824 292.158C385.722 291.875 385.566 291.668 385.356 291.537C385.153 291.407 384.888 291.341 384.562 291.341C384.228 291.341 383.956 291.417 383.745 291.57C383.535 291.715 383.379 291.933 383.277 292.223C383.183 292.513 383.136 292.865 383.136 293.278V293.431C383.136 293.772 383.169 294.066 383.234 294.312C383.299 294.559 383.393 294.762 383.517 294.922C383.64 295.074 383.789 295.187 383.963 295.259C384.137 295.332 384.329 295.368 384.54 295.368ZM388.306 298.1V290.492H389.231L389.329 291.276H389.405C389.601 290.971 389.852 290.743 390.156 290.59C390.461 290.438 390.802 290.362 391.179 290.362C391.651 290.362 392.054 290.467 392.387 290.677C392.728 290.888 392.99 291.214 393.171 291.657C393.352 292.099 393.443 292.673 393.443 293.376C393.443 294.058 393.349 294.621 393.16 295.063C392.979 295.499 392.721 295.821 392.387 296.032C392.054 296.242 391.669 296.347 391.234 296.347C390.98 296.347 390.744 296.318 390.526 296.26C390.309 296.202 390.113 296.112 389.939 295.988C389.772 295.865 389.627 295.709 389.503 295.52H389.438V298.1H388.306ZM390.842 295.368C391.183 295.368 391.459 295.303 391.669 295.172C391.879 295.034 392.032 294.824 392.126 294.541C392.228 294.258 392.279 293.899 392.279 293.463V293.268C392.279 292.81 392.228 292.44 392.126 292.158C392.025 291.875 391.869 291.668 391.658 291.537C391.455 291.407 391.19 291.341 390.864 291.341C390.53 291.341 390.258 291.417 390.048 291.57C389.837 291.715 389.681 291.933 389.58 292.223C389.485 292.513 389.438 292.865 389.438 293.278V293.431C389.438 293.772 389.471 294.066 389.536 294.312C389.601 294.559 389.696 294.762 389.819 294.922C389.942 295.074 390.091 295.187 390.265 295.259C390.439 295.332 390.632 295.368 390.842 295.368ZM394.609 296.217V290.492H395.544L395.642 291.417H395.708C395.773 291.236 395.856 291.066 395.958 290.906C396.067 290.746 396.205 290.616 396.372 290.514C396.546 290.413 396.756 290.362 397.003 290.362C397.119 290.362 397.22 290.373 397.307 290.395C397.402 290.416 397.474 290.434 397.525 290.449V291.515H397.144C396.912 291.515 396.705 291.552 396.524 291.624C396.35 291.697 396.201 291.806 396.078 291.951C395.962 292.089 395.875 292.259 395.817 292.462C395.766 292.665 395.74 292.894 395.74 293.148V296.217H394.609ZM400.702 296.347C400.107 296.347 399.603 296.242 399.19 296.032C398.783 295.814 398.475 295.484 398.264 295.041C398.061 294.599 397.96 294.037 397.96 293.355C397.96 292.665 398.061 292.103 398.264 291.668C398.475 291.225 398.783 290.899 399.19 290.688C399.603 290.471 400.107 290.362 400.702 290.362C401.312 290.362 401.82 290.471 402.226 290.688C402.632 290.899 402.937 291.225 403.14 291.668C403.35 292.103 403.456 292.665 403.456 293.355C403.456 294.037 403.35 294.599 403.14 295.041C402.937 295.484 402.632 295.814 402.226 296.032C401.82 296.242 401.312 296.347 400.702 296.347ZM400.702 295.411C401.065 295.411 401.362 295.343 401.595 295.205C401.827 295.06 401.997 294.842 402.106 294.552C402.222 294.262 402.28 293.895 402.28 293.453V293.257C402.28 292.814 402.222 292.448 402.106 292.158C401.997 291.867 401.827 291.653 401.595 291.515C401.362 291.37 401.065 291.298 400.702 291.298C400.347 291.298 400.053 291.37 399.821 291.515C399.589 291.653 399.414 291.867 399.298 292.158C399.19 292.448 399.135 292.814 399.135 293.257V293.453C399.135 293.895 399.19 294.262 399.298 294.552C399.414 294.842 399.589 295.06 399.821 295.205C400.053 295.343 400.347 295.411 400.702 295.411ZM406.079 296.217L403.957 290.492H405.143L406.133 293.224C406.177 293.355 406.231 293.525 406.297 293.736C406.362 293.939 406.427 294.149 406.492 294.367C406.558 294.584 406.616 294.78 406.667 294.954H406.721C406.765 294.788 406.815 294.599 406.873 294.388C406.939 294.171 407.004 293.957 407.069 293.746C407.135 293.536 407.193 293.362 407.243 293.224L408.223 290.492H409.376L407.243 296.217H406.079ZM412.551 296.347C411.963 296.347 411.47 296.242 411.071 296.032C410.679 295.814 410.381 295.484 410.178 295.041C409.975 294.599 409.873 294.037 409.873 293.355C409.873 292.665 409.975 292.103 410.178 291.668C410.381 291.225 410.682 290.899 411.081 290.688C411.48 290.471 411.977 290.362 412.572 290.362C413.116 290.362 413.57 290.467 413.933 290.677C414.303 290.881 414.582 291.193 414.771 291.613C414.959 292.034 415.054 292.564 415.054 293.202V293.638H411.038C411.052 294.044 411.114 294.385 411.223 294.661C411.332 294.929 411.495 295.129 411.713 295.259C411.938 295.382 412.22 295.444 412.561 295.444C412.772 295.444 412.961 295.419 413.127 295.368C413.294 295.31 413.436 295.23 413.552 295.129C413.668 295.02 413.759 294.893 413.824 294.748C413.889 294.595 413.922 294.425 413.922 294.236H415.032C415.032 294.577 414.974 294.878 414.858 295.139C414.742 295.401 414.571 295.622 414.346 295.803C414.129 295.977 413.867 296.112 413.563 296.206C413.258 296.3 412.921 296.347 412.551 296.347ZM411.06 292.81H413.867C413.867 292.528 413.835 292.292 413.769 292.103C413.711 291.907 413.624 291.748 413.508 291.624C413.392 291.501 413.254 291.414 413.095 291.363C412.935 291.305 412.754 291.276 412.551 291.276C412.246 291.276 411.985 291.33 411.767 291.439C411.557 291.548 411.393 291.719 411.277 291.951C411.161 292.176 411.089 292.462 411.06 292.81ZM418.174 296.347C417.71 296.347 417.307 296.242 416.966 296.032C416.625 295.821 416.36 295.495 416.171 295.052C415.99 294.61 415.899 294.037 415.899 293.333C415.899 292.644 415.994 292.081 416.182 291.646C416.371 291.211 416.632 290.888 416.966 290.677C417.3 290.467 417.684 290.362 418.119 290.362C418.373 290.362 418.609 290.391 418.827 290.449C419.044 290.507 419.237 290.598 419.404 290.721C419.578 290.844 419.723 291 419.839 291.189H419.915V288.349H421.047V296.217H420.122L420.013 295.433H419.937C419.748 295.738 419.498 295.966 419.186 296.119C418.881 296.271 418.544 296.347 418.174 296.347ZM418.489 295.368C418.823 295.368 419.092 295.295 419.295 295.15C419.505 294.998 419.661 294.78 419.763 294.497C419.864 294.207 419.915 293.855 419.915 293.442V293.289C419.915 292.941 419.882 292.644 419.817 292.397C419.752 292.15 419.658 291.951 419.534 291.798C419.411 291.639 419.262 291.523 419.088 291.45C418.914 291.378 418.718 291.341 418.5 291.341C418.167 291.341 417.895 291.41 417.684 291.548C417.474 291.679 417.318 291.885 417.216 292.168C417.122 292.451 417.075 292.818 417.075 293.268V293.463C417.075 293.913 417.125 294.28 417.227 294.563C417.329 294.838 417.481 295.041 417.684 295.172C417.895 295.303 418.163 295.368 418.489 295.368ZM426.849 296.347C426.45 296.347 426.098 296.304 425.794 296.217C425.489 296.13 425.235 296.01 425.032 295.858C424.829 295.705 424.673 295.524 424.564 295.314C424.462 295.096 424.412 294.856 424.412 294.595C424.412 294.559 424.412 294.526 424.412 294.497C424.419 294.468 424.423 294.443 424.423 294.421H425.543C425.543 294.443 425.543 294.465 425.543 294.486C425.543 294.501 425.543 294.519 425.543 294.541C425.543 294.766 425.605 294.947 425.728 295.085C425.852 295.216 426.015 295.31 426.218 295.368C426.429 295.419 426.657 295.444 426.904 295.444C427.121 295.444 427.321 295.419 427.502 295.368C427.691 295.31 427.843 295.226 427.959 295.118C428.083 295.009 428.144 294.871 428.144 294.704C428.144 294.486 428.068 294.32 427.916 294.203C427.764 294.087 427.564 293.997 427.317 293.931C427.071 293.859 426.813 293.783 426.545 293.703C426.305 293.638 426.066 293.569 425.826 293.496C425.594 293.416 425.384 293.315 425.195 293.191C425.007 293.068 424.854 292.912 424.738 292.723C424.622 292.535 424.564 292.299 424.564 292.016C424.564 291.748 424.622 291.512 424.738 291.309C424.854 291.106 425.014 290.935 425.217 290.797C425.427 290.659 425.674 290.554 425.957 290.482C426.247 290.409 426.563 290.373 426.904 290.373C427.259 290.373 427.575 290.413 427.851 290.492C428.126 290.565 428.358 290.67 428.547 290.808C428.743 290.946 428.892 291.113 428.993 291.309C429.095 291.497 429.146 291.7 429.146 291.918C429.146 291.962 429.142 292.009 429.135 292.06C429.135 292.103 429.135 292.132 429.135 292.147H428.025V292.049C428.025 291.904 427.985 291.773 427.905 291.657C427.825 291.541 427.698 291.447 427.524 291.374C427.357 291.301 427.132 291.265 426.849 291.265C426.661 291.265 426.494 291.283 426.349 291.32C426.204 291.349 426.084 291.392 425.99 291.45C425.895 291.508 425.823 291.577 425.772 291.657C425.728 291.737 425.707 291.827 425.707 291.929C425.707 292.096 425.765 292.226 425.881 292.321C426.004 292.408 426.164 292.484 426.36 292.549C426.556 292.607 426.766 292.673 426.991 292.745C427.252 292.818 427.517 292.894 427.785 292.974C428.054 293.046 428.3 293.141 428.525 293.257C428.757 293.373 428.942 293.532 429.08 293.736C429.225 293.939 429.298 294.211 429.298 294.552C429.298 294.864 429.236 295.136 429.113 295.368C428.99 295.6 428.816 295.789 428.591 295.934C428.373 296.072 428.115 296.173 427.818 296.239C427.52 296.311 427.198 296.347 426.849 296.347ZM432.883 296.347C432.288 296.347 431.784 296.242 431.37 296.032C430.964 295.814 430.656 295.484 430.445 295.041C430.242 294.599 430.14 294.037 430.14 293.355C430.14 292.665 430.242 292.103 430.445 291.668C430.656 291.225 430.964 290.899 431.37 290.688C431.784 290.471 432.288 290.362 432.883 290.362C433.492 290.362 434 290.471 434.407 290.688C434.813 290.899 435.118 291.225 435.321 291.668C435.531 292.103 435.636 292.665 435.636 293.355C435.636 294.037 435.531 294.599 435.321 295.041C435.118 295.484 434.813 295.814 434.407 296.032C434 296.242 433.492 296.347 432.883 296.347ZM432.883 295.411C433.246 295.411 433.543 295.343 433.775 295.205C434.007 295.06 434.178 294.842 434.287 294.552C434.403 294.262 434.461 293.895 434.461 293.453V293.257C434.461 292.814 434.403 292.448 434.287 292.158C434.178 291.867 434.007 291.653 433.775 291.515C433.543 291.37 433.246 291.298 432.883 291.298C432.527 291.298 432.234 291.37 432.001 291.515C431.769 291.653 431.595 291.867 431.479 292.158C431.37 292.448 431.316 292.814 431.316 293.257V293.453C431.316 293.895 431.37 294.262 431.479 294.552C431.595 294.842 431.769 295.06 432.001 295.205C432.234 295.343 432.527 295.411 432.883 295.411ZM439.228 296.347C438.633 296.347 438.129 296.242 437.715 296.032C437.309 295.814 437 295.484 436.79 295.041C436.587 294.599 436.485 294.037 436.485 293.355C436.485 292.665 436.587 292.103 436.79 291.668C437 291.225 437.309 290.899 437.715 290.688C438.129 290.471 438.633 290.362 439.228 290.362C439.837 290.362 440.345 290.471 440.751 290.688C441.158 290.899 441.462 291.225 441.665 291.668C441.876 292.103 441.981 292.665 441.981 293.355C441.981 294.037 441.876 294.599 441.665 295.041C441.462 295.484 441.158 295.814 440.751 296.032C440.345 296.242 439.837 296.347 439.228 296.347ZM439.228 295.411C439.59 295.411 439.888 295.343 440.12 295.205C440.352 295.06 440.523 294.842 440.632 294.552C440.748 294.262 440.806 293.895 440.806 293.453V293.257C440.806 292.814 440.748 292.448 440.632 292.158C440.523 291.867 440.352 291.653 440.12 291.515C439.888 291.37 439.59 291.298 439.228 291.298C438.872 291.298 438.578 291.37 438.346 291.515C438.114 291.653 437.94 291.867 437.824 292.158C437.715 292.448 437.661 292.814 437.661 293.257V293.453C437.661 293.895 437.715 294.262 437.824 294.552C437.94 294.842 438.114 295.06 438.346 295.205C438.578 295.343 438.872 295.411 439.228 295.411ZM443.135 296.217V290.492H444.071L444.169 291.309H444.245C444.383 291.098 444.546 290.924 444.734 290.786C444.923 290.648 445.13 290.543 445.355 290.471C445.587 290.398 445.841 290.362 446.117 290.362C446.479 290.362 446.799 290.427 447.074 290.558C447.35 290.681 447.564 290.884 447.716 291.167C447.876 291.45 447.956 291.831 447.956 292.31V296.217H446.824V292.484C446.824 292.266 446.795 292.085 446.737 291.94C446.686 291.795 446.61 291.679 446.508 291.592C446.407 291.505 446.287 291.443 446.149 291.407C446.011 291.37 445.859 291.352 445.692 291.352C445.431 291.352 445.192 291.417 444.974 291.548C444.763 291.671 444.593 291.846 444.462 292.07C444.332 292.295 444.266 292.56 444.266 292.865V296.217H443.135Z" fill="white"/>
</svg>
