<svg width="874" height="848" viewBox="0 0 874 848" fill="none" xmlns="http://www.w3.org/2000/svg">
<path d="M7 10L11.7735 0H0.226497L5 10H7ZM6 669.041H5V670.041H6V669.041ZM868 669.041H869V668.041H868V669.041ZM868 848L873.773 838H862.227L868 848ZM6 11.9472H5V19.9119H6H7V11.9472H6ZM6 27.8767H5V35.8415H6H7V27.8767H6ZM6 43.8062H5V51.771H6H7V43.8062H6ZM6 59.7358H5V67.7005H6H7V59.7358H6ZM6 75.6653H5V83.6301H6H7V75.6653H6ZM6 91.5948H5V99.5596H6H7V91.5948H6ZM6 107.524H5V115.489H6H7V107.524H6ZM6 123.454H5V131.419H6H7V123.454H6ZM6 139.383H5V147.348H6H7V139.383H6ZM6 155.313H5V163.278H6H7V155.313H6ZM6 171.243H5V179.207H6H7V171.243H6ZM6 187.172H5V195.137H6H7V187.172H6ZM6 203.102H5V211.066H6H7V203.102H6ZM6 219.031H5V226.996H6H7V219.031H6ZM6 234.961H5V242.925H6H7V234.961H6ZM6 250.89H5V258.855H6H7V250.89H6ZM6 266.82H5V274.785H6H7V266.82H6ZM6 282.749H5V290.714H6H7V282.749H6ZM6 298.679H5V306.644H6H7V298.679H6ZM6 314.608H5V322.573H6H7V314.608H6ZM6 330.538H5V338.503H6H7V330.538H6ZM6 346.468H5V354.432H6H7V346.468H6ZM6 362.397H5V370.362H6H7V362.397H6ZM6 378.327H5V386.291H6H7V378.327H6ZM6 394.256H5V402.221H6H7V394.256H6ZM6 410.186H5V418.151H6H7V410.186H6ZM6 426.115H5V434.08H6H7V426.115H6ZM6 442.045H5V450.01H6H7V442.045H6ZM6 457.975H5V465.939H6H7V457.975H6ZM6 473.904H5V481.869H6H7V473.904H6ZM6 489.834H5V497.798H6H7V489.834H6ZM6 505.763H5V513.728H6H7V505.763H6ZM6 521.693H5V529.658H6H7V521.693H6ZM6 537.622H5V545.587H6H7V537.622H6ZM6 553.552H5V561.517H6H7V553.552H6ZM6 569.481H5V577.446H6H7V569.481H6ZM6 585.411H5V593.376H6H7V585.411H6ZM6 601.341H5V609.305H6H7V601.341H6ZM6 617.27H5V625.235H6H7V617.27H6ZM6 633.2H5V641.164H6H7V633.2H6ZM6 649.129H5V657.094H6H7V649.129H6ZM6 665.059H5V669.041H6H7V665.059H6ZM6 669.041V670.041H9.99074V669.041V668.041H6V669.041ZM17.9722 669.041V670.041H25.9537V669.041V668.041H17.9722V669.041ZM33.9352 669.041V670.041H41.9167V669.041V668.041H33.9352V669.041ZM49.8981 669.041V670.041H57.8796V669.041V668.041H49.8981V669.041ZM65.8611 669.041V670.041H73.8426V669.041V668.041H65.8611V669.041ZM81.8241 669.041V670.041H89.8056V669.041V668.041H81.8241V669.041ZM97.787 669.041V670.041H105.769V669.041V668.041H97.787V669.041ZM113.75 669.041V670.041H121.731V669.041V668.041H113.75V669.041ZM129.713 669.041V670.041H137.694V669.041V668.041H129.713V669.041ZM145.676 669.041V670.041H153.657V669.041V668.041H145.676V669.041ZM161.639 669.041V670.041H169.62V669.041V668.041H161.639V669.041ZM177.602 669.041V670.041H185.583V669.041V668.041H177.602V669.041ZM193.565 669.041V670.041H201.546V669.041V668.041H193.565V669.041ZM209.528 669.041V670.041H217.509V669.041V668.041H209.528V669.041ZM225.491 669.041V670.041H233.472V669.041V668.041H225.491V669.041ZM241.454 669.041V670.041H249.435V669.041V668.041H241.454V669.041ZM257.417 669.041V670.041H265.398V669.041V668.041H257.417V669.041ZM273.38 669.041V670.041H281.361V669.041V668.041H273.38V669.041ZM289.342 669.041V670.041H297.324V669.041V668.041H289.342V669.041ZM305.305 669.041V670.041H313.287V669.041V668.041H305.305V669.041ZM321.268 669.041V670.041H329.25V669.041V668.041H321.268V669.041ZM337.231 669.041V670.041H345.213V669.041V668.041H337.231V669.041ZM353.194 669.041V670.041H361.176V669.041V668.041H353.194V669.041ZM369.157 669.041V670.041H377.139V669.041V668.041H369.157V669.041ZM385.12 669.041V670.041H393.102V669.041V668.041H385.12V669.041ZM401.083 669.041V670.041H409.065V669.041V668.041H401.083V669.041ZM417.046 669.041V670.041H425.028V669.041V668.041H417.046V669.041ZM433.009 669.041V670.041H440.991V669.041V668.041H433.009V669.041ZM448.972 669.041V670.041H456.953V669.041V668.041H448.972V669.041ZM464.935 669.041V670.041H472.916V669.041V668.041H464.935V669.041ZM480.898 669.041V670.041H488.879V669.041V668.041H480.898V669.041ZM496.861 669.041V670.041H504.842V669.041V668.041H496.861V669.041ZM512.824 669.041V670.041H520.805V669.041V668.041H512.824V669.041ZM528.787 669.041V670.041H536.768V669.041V668.041H528.787V669.041ZM544.75 669.041V670.041H552.731V669.041V668.041H544.75V669.041ZM560.713 669.041V670.041H568.694V669.041V668.041H560.713V669.041ZM576.676 669.041V670.041H584.657V669.041V668.041H576.676V669.041ZM592.639 669.041V670.041H600.62V669.041V668.041H592.639V669.041ZM608.602 669.041V670.041H616.583V669.041V668.041H608.602V669.041ZM624.565 669.041V670.041H632.546V669.041V668.041H624.565V669.041ZM640.528 669.041V670.041H648.509V669.041V668.041H640.528V669.041ZM656.491 669.041V670.041H664.472V669.041V668.041H656.491V669.041ZM672.454 669.041V670.041H680.435V669.041V668.041H672.454V669.041ZM688.417 669.041V670.041H696.398V669.041V668.041H688.417V669.041ZM704.38 669.041V670.041H712.361V669.041V668.041H704.38V669.041ZM720.343 669.041V670.041H728.324V669.041V668.041H720.343V669.041ZM736.306 669.041V670.041H744.287V669.041V668.041H736.306V669.041ZM752.269 669.041V670.041H760.25V669.041V668.041H752.269V669.041ZM768.232 669.041V670.041H776.214V669.041V668.041H768.232V669.041ZM784.195 669.041V670.041H792.177V669.041V668.041H784.195V669.041ZM800.158 669.041V670.041H808.14V669.041V668.041H800.158V669.041ZM816.121 669.041V670.041H824.103V669.041V668.041H816.121V669.041ZM832.084 669.041V670.041H840.065V669.041V668.041H832.084V669.041ZM848.047 669.041V670.041H856.029V669.041V668.041H848.047V669.041ZM864.01 669.041V670.041H868V669.041V668.041H864.01V669.041ZM868 669.041H867V673.108H868H869V669.041H868ZM868 681.242H867V689.377H868H869V681.242H868ZM868 697.511H867V705.646H868H869V697.511H868ZM868 713.78H867V721.915H868H869V713.78H868ZM868 730.049H867V738.184H868H869V730.049H868ZM868 746.319H867V754.453H868H869V746.319H868ZM868 762.588H867V770.722H868H869V762.588H868ZM868 778.857H867V786.991H868H869V778.857H868ZM868 795.126H867V803.26H868H869V795.126H868ZM868 811.395H867V819.529H868H869V811.395H868ZM868 827.664H867V835.798H868H869V827.664H868Z" fill="#999999"/>
</svg>
