<svg width="715" height="469" viewBox="0 0 715 469" fill="none" xmlns="http://www.w3.org/2000/svg">
<path d="M7 10L11.7735 0H0.226497L5 10H7ZM6 370.024H5V371.024H6V370.024ZM709 370.024H710V369.024H709V370.024ZM709 469L714.773 459H703.227L709 469ZM6 12.066H5V20.11H6H7V12.066H6ZM6 28.154H5V36.198H6H7V28.154H6ZM6 44.242H5V52.2859H6H7V44.242H6ZM6 60.3299H5V68.3739H6H7V60.3299H6ZM6 76.4179H5V84.4619H6H7V76.4179H6ZM6 92.5059H5V100.55H6H7V92.5059H6ZM6 108.594H5V116.638H6H7V108.594H6ZM6 124.682H5V132.726H6H7V124.682H6ZM6 140.77H5V148.814H6H7V140.77H6ZM6 156.858H5V164.902H6H7V156.858H6ZM6 172.946H5V180.99H6H7V172.946H6ZM6 189.034H5V197.078H6H7V189.034H6ZM6 205.122H5V213.166H6H7V205.122H6ZM6 221.21H5V229.254H6H7V221.21H6ZM6 237.298H5V245.342H6H7V237.298H6ZM6 253.386H5V261.43H6H7V253.386H6ZM6 269.474H5V277.518H6H7V269.474H6ZM6 285.562H5V293.606H6H7V285.562H6ZM6 301.65H5V309.694H6H7V301.65H6ZM6 317.738H5V325.782H6H7V317.738H6ZM6 333.826H5V341.87H6H7V333.826H6ZM6 349.914H5V357.958H6H7V349.914H6ZM6 366.002H5V370.024H6H7V366.002H6ZM6 370.024V371.024H9.99432V370.024V369.024H6V370.024ZM17.983 370.024V371.024H25.9716V370.024V369.024H17.983V370.024ZM33.9602 370.024V371.024H41.9489V370.024V369.024H33.9602V370.024ZM49.9375 370.024V371.024H57.9261V370.024V369.024H49.9375V370.024ZM65.9148 370.024V371.024H73.9034V370.024V369.024H65.9148V370.024ZM81.8921 370.024V371.024H89.8807V370.024V369.024H81.8921V370.024ZM97.8693 370.024V371.024H105.858V370.024V369.024H97.8693V370.024ZM113.847 370.024V371.024H121.835V370.024V369.024H113.847V370.024ZM129.824 370.024V371.024H137.813V370.024V369.024H129.824V370.024ZM145.801 370.024V371.024H153.79V370.024V369.024H145.801V370.024ZM161.778 370.024V371.024H169.767V370.024V369.024H161.778V370.024ZM177.756 370.024V371.024H185.744V370.024V369.024H177.756V370.024ZM193.733 370.024V371.024H201.722V370.024V369.024H193.733V370.024ZM209.71 370.024V371.024H217.699V370.024V369.024H209.71V370.024ZM225.687 370.024V371.024H233.676V370.024V369.024H225.687V370.024ZM241.665 370.024V371.024H249.653V370.024V369.024H241.665V370.024ZM257.642 370.024V371.024H265.631V370.024V369.024H257.642V370.024ZM273.619 370.024V371.024H281.608V370.024V369.024H273.619V370.024ZM289.597 370.024V371.024H297.585V370.024V369.024H289.597V370.024ZM305.574 370.024V371.024H313.563V370.024V369.024H305.574V370.024ZM321.551 370.024V371.024H329.54V370.024V369.024H321.551V370.024ZM337.528 370.024V371.024H345.517V370.024V369.024H337.528V370.024ZM353.506 370.024V371.024H361.494V370.024V369.024H353.506V370.024ZM369.483 370.024V371.024H377.472V370.024V369.024H369.483V370.024ZM385.46 370.024V371.024H393.449V370.024V369.024H385.46V370.024ZM401.438 370.024V371.024H409.426V370.024V369.024H401.438V370.024ZM417.415 370.024V371.024H425.404V370.024V369.024H417.415V370.024ZM433.392 370.024V371.024H441.381V370.024V369.024H433.392V370.024ZM449.37 370.024V371.024H457.358V370.024V369.024H449.37V370.024ZM465.347 370.024V371.024H473.336V370.024V369.024H465.347V370.024ZM481.324 370.024V371.024H489.313V370.024V369.024H481.324V370.024ZM497.301 370.024V371.024H505.29V370.024V369.024H497.301V370.024ZM513.279 370.024V371.024H521.267V370.024V369.024H513.279V370.024ZM529.256 370.024V371.024H537.245V370.024V369.024H529.256V370.024ZM545.233 370.024V371.024H553.222V370.024V369.024H545.233V370.024ZM561.211 370.024V371.024H569.199V370.024V369.024H561.211V370.024ZM577.188 370.024V371.024H585.177V370.024V369.024H577.188V370.024ZM593.165 370.024V371.024H601.154V370.024V369.024H593.165V370.024ZM609.143 370.024V371.024H617.131V370.024V369.024H609.143V370.024ZM625.12 370.024V371.024H633.108V370.024V369.024H625.12V370.024ZM641.097 370.024V371.024H649.086V370.024V369.024H641.097V370.024ZM657.074 370.024V371.024H665.063V370.024V369.024H657.074V370.024ZM673.052 370.024V371.024H681.04V370.024V369.024H673.052V370.024ZM689.029 370.024V371.024H697.018V370.024V369.024H689.029V370.024ZM705.006 370.024V371.024H709V370.024V369.024H705.006V370.024ZM709 370.024H708V374.148H709H710V370.024H709ZM709 382.396H708V390.644H709H710V382.396H709ZM709 398.892H708V407.14H709H710V398.892H709ZM709 415.388H708V423.636H709H710V415.388H709ZM709 431.884H708V440.132H709H710V431.884H709ZM709 448.38H708V456.628H709H710V448.38H709Z" fill="#999999"/>
</svg>
