<svg width="863" height="469" viewBox="0 0 863 469" fill="none" xmlns="http://www.w3.org/2000/svg">
<path d="M856 10L851.226 0H862.774L858 10H856ZM857 370.024H858V371.024H857V370.024ZM6 370.024H5V369.024H6V370.024ZM6 469L0.226501 459H11.7735L6 469ZM857 12.066H858V20.11H857H856V12.066H857ZM857 28.154H858V36.198H857H856V28.154H857ZM857 44.242H858V52.2859H857H856V44.242H857ZM857 60.3299H858V68.3739H857H856V60.3299H857ZM857 76.4179H858V84.4619H857H856V76.4179H857ZM857 92.5059H858V100.55H857H856V92.5059H857ZM857 108.594H858V116.638H857H856V108.594H857ZM857 124.682H858V132.726H857H856V124.682H857ZM857 140.77H858V148.814H857H856V140.77H857ZM857 156.858H858V164.902H857H856V156.858H857ZM857 172.946H858V180.99H857H856V172.946H857ZM857 189.034H858V197.078H857H856V189.034H857ZM857 205.122H858V213.166H857H856V205.122H857ZM857 221.21H858V229.254H857H856V221.21H857ZM857 237.298H858V245.342H857H856V237.298H857ZM857 253.386H858V261.43H857H856V253.386H857ZM857 269.474H858V277.518H857H856V269.474H857ZM857 285.562H858V293.606H857H856V285.562H857ZM857 301.65H858V309.694H857H856V301.65H857ZM857 317.738H858V325.782H857H856V317.738H857ZM857 333.826H858V341.87H857H856V333.826H857ZM857 349.914H858V357.958H857H856V349.914H857ZM857 366.002H858V370.024H857H856V366.002H857ZM857 370.024V371.024H852.986V370.024V369.024H857V370.024ZM844.958 370.024V371.024H836.929V370.024V369.024H844.958V370.024ZM828.901 370.024V371.024H820.873V370.024V369.024H828.901V370.024ZM812.844 370.024V371.024H804.816V370.024V369.024H812.844V370.024ZM796.788 370.024V371.024H788.759V370.024V369.024H796.788V370.024ZM780.731 370.024V371.024H772.703V370.024V369.024H780.731V370.024ZM764.675 370.024V371.024H756.646V370.024V369.024H764.675V370.024ZM748.618 370.024V371.024H740.59V370.024V369.024H748.618V370.024ZM732.561 370.024V371.024H724.533V370.024V369.024H732.561V370.024ZM716.505 370.024V371.024H708.476V370.024V369.024H716.505V370.024ZM700.448 370.024V371.024H692.42V370.024V369.024H700.448V370.024ZM684.391 370.024V371.024H676.363V370.024V369.024H684.391V370.024ZM668.335 370.024V371.024H660.307V370.024V369.024H668.335V370.024ZM652.278 370.024V371.024H644.25V370.024V369.024H652.278V370.024ZM636.222 370.024V371.024H628.193V370.024V369.024H636.222V370.024ZM620.165 370.024V371.024H612.137V370.024V369.024H620.165V370.024ZM604.108 370.024V371.024H596.08V370.024V369.024H604.108V370.024ZM588.052 370.024V371.024H580.024V370.024V369.024H588.052V370.024ZM571.995 370.024V371.024H563.967V370.024V369.024H571.995V370.024ZM555.939 370.024V371.024H547.91V370.024V369.024H555.939V370.024ZM539.882 370.024V371.024H531.854V370.024V369.024H539.882V370.024ZM523.826 370.024V371.024H515.797V370.024V369.024H523.826V370.024ZM507.769 370.024V371.024H499.741V370.024V369.024H507.769V370.024ZM491.712 370.024V371.024H483.684V370.024V369.024H491.712V370.024ZM475.656 370.024V371.024H467.628V370.024V369.024H475.656V370.024ZM459.599 370.024V371.024H451.571V370.024V369.024H459.599V370.024ZM443.543 370.024V371.024H435.514V370.024V369.024H443.543V370.024ZM427.486 370.024V371.024H419.458V370.024V369.024H427.486V370.024ZM411.429 370.024V371.024H403.401V370.024V369.024H411.429V370.024ZM395.373 370.024V371.024H387.345V370.024V369.024H395.373V370.024ZM379.316 370.024V371.024H371.288V370.024V369.024H379.316V370.024ZM363.26 370.024V371.024H355.231V370.024V369.024H363.26V370.024ZM347.203 370.024V371.024H339.175V370.024V369.024H347.203V370.024ZM331.147 370.024V371.024H323.118V370.024V369.024H331.147V370.024ZM315.09 370.024V371.024H307.062V370.024V369.024H315.09V370.024ZM299.033 370.024V371.024H291.005V370.024V369.024H299.033V370.024ZM282.977 370.024V371.024H274.948V370.024V369.024H282.977V370.024ZM266.92 370.024V371.024H258.892V370.024V369.024H266.92V370.024ZM250.863 370.024V371.024H242.835V370.024V369.024H250.863V370.024ZM234.807 370.024V371.024H226.778V370.024V369.024H234.807V370.024ZM218.75 370.024V371.024H210.722V370.024V369.024H218.75V370.024ZM202.693 370.024V371.024H194.665V370.024V369.024H202.693V370.024ZM186.637 370.024V371.024H178.608V370.024V369.024H186.637V370.024ZM170.58 370.024V371.024H162.552V370.024V369.024H170.58V370.024ZM154.523 370.024V371.024H146.495V370.024V369.024H154.523V370.024ZM138.467 370.024V371.024H130.439V370.024V369.024H138.467V370.024ZM122.41 370.024V371.024H114.382V370.024V369.024H122.41V370.024ZM106.354 370.024V371.024H98.3252V370.024V369.024H106.354V370.024ZM90.2969 370.024V371.024H82.2686V370.024V369.024H90.2969V370.024ZM74.2402 370.024V371.024H66.2119V370.024V369.024H74.2402V370.024ZM58.1836 370.024V371.024H50.1553V370.024V369.024H58.1836V370.024ZM42.127 370.024V371.024H34.0987V370.024V369.024H42.127V370.024ZM26.0704 370.024V371.024H18.0421V370.024V369.024H26.0704V370.024ZM10.0137 370.024V371.024H6V370.024V369.024H10.0137V370.024ZM6 370.024H7V374.148H6H5V370.024H6ZM6 382.396H7V390.644H6H5V382.396H6ZM6 398.892H7V407.14H6H5V398.892H6ZM6 415.388H7V423.636H6H5V415.388H6ZM6 431.884H7V440.132H6H5V431.884H6ZM6 448.38H7V456.628H6H5V448.38H6Z" fill="#999999"/>
</svg>
