<svg width="36" height="35" viewBox="0 0 36 35" fill="none" xmlns="http://www.w3.org/2000/svg">
<path d="M12.1951 33.2649L19.9363 25.5237L25.4657 31.0531L34.3128 22.2061" stroke="white" stroke-width="2.36975"/>
<path d="M25.6236 22.2067H34.3127V30.8958M22.0169 19.4483C23.5984 17.327 24.3894 14.7199 24.2532 12.0774C24.117 9.43496 23.0622 6.92302 21.2709 4.97552C19.4797 3.02802 17.0646 1.76726 14.4427 1.41102C11.8208 1.05477 9.15679 1.62542 6.91088 3.02438C4.66496 4.42335 2.97815 6.56277 2.14183 9.07312C1.30551 11.5835 1.37218 14.3071 2.33035 16.7735C3.28851 19.2399 5.07798 21.2942 7.38967 22.5816C9.70135 23.869 12.3901 24.3086 14.9914 23.8245M12.9171 7.92031V4.76065M12.9171 20.5589V17.3993" stroke="white" stroke-width="2.36975"/>
<path d="M16.4718 10.2906V9.50073C16.4718 9.08173 16.3053 8.6799 16.0091 8.38362C15.7128 8.08734 15.311 7.9209 14.892 7.9209H10.9424C10.5234 7.9209 10.1215 8.08734 9.82527 8.38362C9.529 8.6799 9.36255 9.08173 9.36255 9.50073V10.2069C9.36225 10.5666 9.48468 10.9156 9.7096 11.1962C9.93452 11.4769 10.2485 11.6724 10.5996 11.7504L15.2332 12.7805C15.5843 12.8581 15.8984 13.0533 16.1236 13.3336C16.3488 13.614 16.4716 13.9628 16.4718 14.3224V15.8185C16.4718 16.2375 16.3053 16.6393 16.0091 16.9356C15.7128 17.2319 15.311 17.3983 14.892 17.3983H10.9424C10.5234 17.3983 10.1215 17.2319 9.82527 16.9356C9.529 16.6393 9.36255 16.2375 9.36255 15.8185V15.0286" stroke="white" stroke-width="2.36975"/>
</svg>
