<svg width="189" height="84" viewBox="0 0 189 84" fill="none" xmlns="http://www.w3.org/2000/svg">
<path d="M24.7538 57.0001V26.6629H11.3628V16.2345H51.1804V26.6629H37.8486V57.0001H24.7538Z" fill="#12D96A"/>
<path d="M24.6553 66.8754V26.1098H37.7501V43.53L52.2669 26.1098H68.502L53.8667 42.8782L68.7983 66.8754H53.3335L44.6826 51.6475L37.7501 58.343V66.8754H24.6553Z" fill="#12D96A"/>
<path d="M88.7326 54.9376V31.1534H79.5817V27.2835H102.479V31.1534H93.2475V54.9376H88.7326ZM108.212 55.4214C107.541 55.4214 106.815 55.3407 106.036 55.1795C105.256 55.0182 104.517 54.7226 103.818 54.2926C103.147 53.8626 102.596 53.2714 102.166 52.5189C101.736 51.7395 101.521 50.7317 101.521 49.4955C101.521 48.0442 101.857 46.8483 102.528 45.9077C103.2 44.9671 104.141 44.228 105.35 43.6905C106.56 43.153 107.997 42.7768 109.664 42.5618C111.357 42.3468 113.198 42.2393 115.186 42.2393V40.143C115.186 39.4443 115.066 38.8262 114.824 38.2887C114.609 37.7512 114.192 37.3346 113.574 37.039C112.983 36.7434 112.123 36.5956 110.994 36.5956C109.865 36.5956 108.978 36.7434 108.333 37.039C107.715 37.3078 107.272 37.6571 107.003 38.0871C106.761 38.4902 106.64 38.9337 106.64 39.4174V40.0221H102.609C102.582 39.8877 102.569 39.7534 102.569 39.619C102.569 39.4846 102.569 39.3234 102.569 39.1352C102.569 37.8721 102.918 36.8106 103.617 35.9506C104.343 35.0637 105.35 34.3918 106.64 33.935C107.93 33.4781 109.422 33.2497 111.115 33.2497C112.942 33.2497 114.461 33.5184 115.67 34.0559C116.906 34.5665 117.834 35.3056 118.452 36.2731C119.07 37.2406 119.379 38.4096 119.379 39.7802V50.5436C119.379 51.0542 119.5 51.417 119.742 51.632C120.011 51.847 120.32 51.9545 120.669 51.9545H122.12V54.7764C121.798 54.9107 121.395 55.0451 120.911 55.1795C120.427 55.3139 119.863 55.3811 119.218 55.3811C118.492 55.3811 117.874 55.2467 117.363 54.9779C116.88 54.7361 116.476 54.3867 116.154 53.9298C115.858 53.4461 115.657 52.9086 115.549 52.3173H115.307C114.824 52.9354 114.232 53.4864 113.534 53.9701C112.862 54.427 112.082 54.7764 111.196 55.0182C110.309 55.287 109.314 55.4214 108.212 55.4214ZM109.382 51.9545C110.215 51.9545 110.981 51.8336 111.679 51.5917C112.405 51.323 113.023 50.9602 113.534 50.5033C114.044 50.0195 114.447 49.4552 114.743 48.8102C115.039 48.1383 115.186 47.4127 115.186 46.6333V45.2224C113.332 45.2224 111.706 45.3299 110.309 45.5449C108.911 45.7599 107.823 46.163 107.043 46.7542C106.264 47.3186 105.874 48.1114 105.874 49.1327C105.874 49.7508 106.009 50.2748 106.277 50.7048C106.546 51.108 106.949 51.417 107.487 51.632C108.024 51.847 108.656 51.9545 109.382 51.9545ZM125.015 54.9376V25.7919H129.207V43.4083L137.552 33.7334H142.51L135.335 41.9571L142.913 54.9376H138.076L132.634 45.0208L129.207 48.407V54.9376H125.015ZM146.877 54.9376V27.2835H166.63V31.1534H151.392V39.3368H165.179V43.1665H151.392V54.9376H146.877ZM170.957 30.065V25.7919H175.149V30.065H170.957ZM170.957 54.9376V33.7334H175.149V54.9376H170.957Z" fill="white"/>
</svg>
